<svg width="420" height="297" fill="none" xmlns="http://www.w3.org/2000/svg"><g clip-path="url(#prefix__clip0_4_34)"><path d="M351.42 31.345L207.388 11.127c-3.294-.463-6.342 1.854-6.808 5.175l-29.658 211.273c-.466 3.32 1.826 6.387 5.12 6.849l144.033 20.219c3.294.462 6.342-1.855 6.808-5.175L356.54 38.195c.466-3.32-1.826-6.387-5.12-6.85z" fill="#fff" stroke="gray" stroke-width=".756"/><path d="M215.596 36.796l-3.91-.549-4.161-9.205-1.186 8.454-3.333-.467 2.673-19.045 3.333.468-.92 6.55 5.619-5.89 3.969.557-7.246 7.643 5.162 11.484zM311.867 228.974l3.91.548 4.16 9.205 1.187-8.454 3.333.468-2.673 19.045-3.333-.468.919-6.551-5.619 5.891-3.969-.557 7.246-7.643-5.161-11.484zM320.531 212.928a15.627 15.627 0 01-2.758 3.215c-.681.604-1.413 1.146-2.151 1.675-.577.414-1.162.823-1.659 1.334-.335.346-.63.741-.807 1.192-.321.817-.228 1.755.081 2.572.181.479.435.932.773 1.311.502.563 1.205.957 1.952.997.684.037 1.365-.221 1.926-.629.496-.36.91-.839 1.207-1.385.135.607.402 1.181.779 1.664.427.546 1.011.982 1.679 1.135.729.167 1.513-.018 2.151-.421a4.195 4.195 0 001.104-1.047c.522-.701.87-1.577.786-2.451-.047-.482-.221-.944-.448-1.368-.337-.628-.787-1.183-1.228-1.739-.564-.712-1.118-1.434-1.607-2.203a15.675 15.675 0 01-1.765-3.85M206.917 52.84a15.638 15.638 0 00-1.766-3.85c-.488-.769-1.043-1.491-1.607-2.203-.441-.556-.891-1.111-1.227-1.74-.227-.424-.402-.885-.448-1.367-.084-.874.264-1.75.786-2.451.306-.41.675-.776 1.104-1.047.638-.404 1.422-.588 2.151-.421.668.152 1.252.588 1.678 1.134a4.18 4.18 0 01.779 1.664 4.204 4.204 0 011.208-1.385c.56-.407 1.242-.666 1.926-.629.746.04 1.45.434 1.952.997.338.38.592.832.773 1.311.309.818.402 1.755.081 2.572-.178.452-.473.847-.808 1.192-.496.512-1.082.921-1.658 1.334-.739.53-1.471 1.071-2.152 1.676a15.687 15.687 0 00-2.758 3.215M232.351 72.81a31.349 31.349 0 00-3.532-7.701c-.977-1.537-2.085-2.982-3.214-4.406-.881-1.112-1.782-2.222-2.454-3.478-.455-.85-.804-1.772-.897-2.736-.167-1.748.528-3.5 1.572-4.902.612-.82 1.35-1.552 2.209-2.094 1.275-.807 2.844-1.176 4.301-.842 1.337.305 2.504 1.177 3.357 2.27a8.391 8.391 0 011.559 3.327 8.38 8.38 0 012.414-2.77c1.121-.815 2.484-1.332 3.853-1.258 1.493.081 2.899.868 3.903 1.994.676.758 1.184 1.664 1.546 2.622.618 1.636.805 3.51.162 5.144-.355.903-.944 1.693-1.615 2.384-.992 1.023-2.163 1.842-3.317 2.668-1.477 1.059-2.94 2.142-4.303 3.35a31.314 31.314 0 00-5.515 6.431M295.083 192.956a31.346 31.346 0 01-5.515 6.431c-1.363 1.209-2.826 2.292-4.303 3.35-1.154.827-2.325 1.646-3.318 2.668-.67.691-1.26 1.482-1.614 2.384-.643 1.634-.457 3.509.161 5.145.362.958.87 1.863 1.546 2.621 1.005 1.127 2.411 1.913 3.904 1.994 1.369.074 2.731-.442 3.852-1.258a8.38 8.38 0 002.415-2.77 8.37 8.37 0 001.558 3.328c.854 1.092 2.021 1.964 3.358 2.27 1.457.333 3.025-.036 4.301-.842.859-.543 1.596-1.273 2.208-2.095 1.045-1.402 1.74-3.153 1.572-4.901-.092-.965-.442-1.887-.896-2.736-.673-1.256-1.573-2.366-2.455-3.478-1.128-1.424-2.237-2.869-3.214-4.406a31.306 31.306 0 01-3.531-7.701" fill="red"/><path d="M231.886 200.719l37.914 6.292c2.734 4.833 8.204 14.672 8.204 14.672l-61.547-8.175 15.429-12.789zm-16.355.71c2.095-2.856 2.848-5.791 3.163-10.134.235-3.334 2.82-5.581 4.956-4.265 1.653 1.017.383 4.019-1.344 3.094-.66-.354-1.305-.214-1.429 1.282-.371 3.676.07 7.941-1.337 11.312-1.121 3.311-5.903 1.015-4.009-1.289zm-14.698-7.01c-1.54-2.993 2.3-5.029 4.289-3.462.964.6.676 1.558-.546.847-1.705-.992-4.032 1.301-2.607 2.565.657.583.942.559.477-.118-1.236-1.809 2.625-1.967 2.363-.932-.444 1.242-.554 1.776-.716 2.01-.929 1.005-2.316.221-3.26-.91zm7.064-10.616c-1.735-2.741.942-4.308.9-4.243.712-.538-3.466-11.102-2.749-11.063 7.179.326 14.252 1.897 21.312 3.134.002.001-4.707 5.798-6.673 8.72-.792 1.177.41 2.873-.315 3.728-2.097 1.597-1.264 3.825-2.415 3.753-3.137-.847-6.22-1.801-9.856-1.653-.261-.038-.086-1.433-.204-2.376zm40.521-63.29c1.095 17.523-6.812 34.779-20.641 44.911-1.483-1.779-2.368-4.876-3.793-7.019-4.533-2.012-8.16-.947-11.697.098-2.713-2.012-5.893-3.427-9.132-3.857l.28-2.644c3.28.409 6.693 1.194 9.36 3.3l4.81-1.064-12.201-15.831.537-2.324 14.87 18.752 2.21.397c-3.111-12.822 3.967-31.44 25.397-34.719zm20.929 24.823l.871 11.466s-15.115 11.339-24.182 16.447l-6.064-1.415s10.421-12.71 8.727-11.868l20.648-14.63zm47.321 22.434c-6.747 5.268-14.308 8.142-22.701 11.3-2.633-3.69-5.881-7.801-7.591-11.311 7.269-2.395 14.111-4.075 21.61-9.028-.419.329-8.894 1.718-8.825 1.427-.476 1.22-.415 2.025-1.781 2.166-1.263-2.262-2.531-4.133-4.858-5.401-1.045-.063-2.322-.899-2.322-.899.709-.031 1.545-7.884 1.175-8.03 0 0 .236-.202 2.033.094 3.249.261 5.859-3.072 8.038-4.026 6.31.428 11.754 1.806 17.924 2.545-1.062 6.943-1.685 14.212-2.702 21.163zm-37.055-23.366c-.114-.318-.007-12.064 2.544-19.069.523-1.654 3.465-1.813 4.197-2.995 1.31-2.61.439-6.196 1.608-9.166 1.191-3.023 3.031-4.553 4.756-6.678 1.868-2.301 4.476-5.133 7.131-6.665.792-.537 2.933 1.876 4.238 5.699 4.844 3.888 12.226.853 12.226.853s2.343 2.394 8.146 4.36l-.418 2.149c-.122.625-6.61-1.646-7.863-3.11 0 0-5.209.833-5.251 1.117-.175 1.213 11.312 14.511 11.312 14.511l-.336 2.819c-1.597-2.852-15.221-17.423-15.221-17.423.681 19.253-9.194 29.746-27.069 33.598zm-21.53-6.88l1.317-11.089 11.22 1.76-1.167 11.228-11.37-1.899zM208.4 118.106c.358-.348 2.569-20.65 2.616-20.643 8.123-5.61 15.662-8.31 23.266-11.333 2.743 3.397 5.077 6.266 6.894 10.163l-10.49 4.163c.169 1.411-.856 1.761 4.61 7.954.158-.347 2.37-1.124 2.494.538-1.341 3.274-.543 6.34-.649 8.189-1.009.947-2.745-.479-2.745-.479-1.057-1.38-6.751 3.845-8.227 4.307-5.984-1.084-18.17-2.467-17.769-2.859zm72.962-26.165c.089-.06 6.111.933 6.001 1.124-1.503 2.597-4.949 7.094-8.272 12.377-3.583 4.394-7.991 6.648-11.863 9.306-3.095 2.125-6.105 5.744-7.817 4.442-.639-3.581-.459-6.648-1.16-10.615-.247-2.326 3.453-3.28 23.111-16.634zm29.19-15.092c2.083 1.203 8.365 1.645 9.409 1.392 1.146.986.201 1.94-.045 2.51 1.073 1.724 1.704 2.372-.131 4.633-.336-.049 3.033 10.903 3.163 10.929 0 0-4.809-3.03-6.398-4.835l-4.191 3.895-3.393-5.58c-.081.448-8.724 4.212-8.785 3.961-.215-.27 8.372-6.717 7.533-11.357-.202-1.119.775-2.083 1.472-2.94.478-.59.144-1.91 1.366-2.608zm-3.98-1.516c.388-.312-.517-9.903 2.476-13.285 1.236-1.21 3.12-1.006 3.741.22.373 1.636-1.725 3.53-2.237 4.531-1.589 2.763-.43 6.881-1.676 9.53-3.403 5.686-6.893-1.61-2.304-.996zm17.368-1.676c-1.335-.138.133-3.714.507-4.745.025-.211 2.539-.388 3.204 1.198 1.098 2.387-1.007 4.89-3.711 3.547zM310.839 52.65l-14.583 12.405c-12.447-3.2-25.011-5.91-38.212-5.94l-8.418-15.079 61.213 8.614z" fill="#E2CF00"/><path d="M333.686 54.908l-115.755-16.49-23.925 172.713 115.536 16.147 24.144-172.37zm-26.775-2.815c1.269.185 2.537.373 3.806.56l-16.181 13.923-.356.057c.554 2.663 1.411 6.008 2.32 8.585 1.439 4.162 5.436 12.005 1.463 17.237-.379.443-.7.64-1.085.581-.533-.08-.481-.371-.079-.896.883-1.155 1.793-4.065 1.744-5.682-.032-1.032-.403-2.67-1.196-5.18-3.937-9.858-4.874-14.943-4.575-14.9a1.292 1.292 0 00-.358-.195l-.494-.236c.985 6.013 3.244 11.277 4.936 16.092 1.317 4.438 1.288 6.082-.16 8.962-.561 1.115-1.375 1.763-2.067 1.66-.519-.078-.475-.172-.034-.715 2.296-2.828 2.363-6.27.645-10.534-2.381-6.977-3.779-11.376-4.356-15.714-.03-.006-.581-.271-.782-.348.354 4.48 2.383 9.882 4.204 15.372 1.548 4.25 1.74 7.21.643 9.367-.394.947-1.409 2.295-2.428 2.19-.395-.059-.429-.261.018-.713 1.942-2.295 2.562-4.582.52-10.29-1.877-5.248-3.679-11.078-3.87-15.97.001-.399-1.057-1.026-.909-.343.567 5.828 2.494 11.992 4.614 18.036 1.145 3.727.991 5.983-.536 7.754-.853.99-1.067 1.212-1.589 1.147-.617-.078-.609-.054-.172-.668 1.929-2.714 2.06-5.333.672-9.863-1.904-6.211-3.519-11.357-3.762-16.615-.171-.074-1.054-.548-.958-.273.665 5.073 1.766 9.85 3.369 14.754.559 1.701 1.39 4.974 1.578 6.58.354 3.058-2.005 6.843-4.35 6.71-.875-.05-.709-.437.376-1.134 1.867-1.202 2.524-3.456 2.351-6.207-.122-2.116-.527-4.427-1.199-6.813-1.358-4.826-2.865-9.887-2.949-14.171.077-.372-.848-.508-.644-.078.07 3.014.774 6.537 1.626 9.838.933 3.611 2.503 7.734 2.59 12.012.071 3.5-2.678 6.396-5.47 6.187-3.363-.252-3.568-3.432-2.556-4.762 1.622-1.969 5.236-.184 3.785 1.86-.834 1.176-2.768.554-2.48-.828-.004-.13.265-.481.23-.508-.064-.047-.391.16-.507.303-.838 1.03.964 2.839 2.503 2.136 5.062-1.705 2.944-9.459 1.541-14.211-1.384-4.439-2.294-8.4-2.366-12.333-.156-.137-.907-.435-.817-.288.271 2.134.282 3.9.598 5.706.496 2.831 1.651 6.087 2.512 9.305.748 3.153 1.567 5.858.572 8.887-.093.28-.269.606-.508.785-.242.177-.413.12-.36-.68-.006-.112-.133-.276-.136-.416.287-1.15.371-2.32.21-3.466-.142-.96-.529-1.975-1.376-3.923-.34-.729-1.186-2.93-.991-1.465.115.828.641 2.71 1.27 4.108.391.868.607 3.114.388 3.51-.226.386-.616.353-.775.185-.144-.15-.058-.73-.047-1.095.044-1.498-1.191-4.304-2.161-5.476-.679-.956 1.37 3.841 1.396 5.044.011.51.117.938-.1 1.155-.143.143-.385.11-.613.018-.22-.088-.189-.234-.32-1.025-.224-1.354-.639-2.08-1.528-3.401-.305-.453-.62.012-.136.745.627 1.3 1.117 2.143 1.099 3.695-.619.614-.855.443-1.684-1.46-.548-1.257-.935-1.616-1.124-1.635-.479-.047-.11.569.936 2.732.537 1.151.459 1.807-.326 1.69-.266-.04-1.533-1.795-1.81-2.516-.229-.598-.552-1.078-.651-.403-.04.269.677 1.818 1.211 2.597.84 1.228 1.094 1.487 1.152 1.985.027.238.089.655.137.928.142.816-.02 1.02-.478.533-.15-.612-.332-.7-.91-1.237-.487-.454-1.097-1.534-1.49-2.29-.148-.286-.261-.638-.412-.929-.36-.917-.992-1.084-.652-.162.162.428.424 1.13.728 1.667.505.927.312 1.344-.432 1.233-.318-.048-1.05-1.272-1.482-2.208-.281-.611-.791-1.088-.803-.525-.002.14.293 1.184.84 2.046.593.937.623 1.394-.071 1.29-.474-.072-.82-.554-1.298-1.505-.455-.903-.771-1.244-.946-1.174-.223.088.568 1.862 1.284 2.873.677.955.021 1.348-.789.468-.44-.477-1.262-1.83-1.458-2.444-.351-1.1-.714-.866-.509-.007.225.948.638 2.01 1.217 2.744.303.385.991.752 1.303 1.09.885.959 1.411 1.802 1.31 1.924-2.884-.265-4.816-3.466-5.206-5.29-.29-1.205-.787-1.448-.527.231.812 4.196 4.859 6.902 8.127 5.55 1.973-.816.78-3.861-.837-3.171-.44.188-.56.883.008.584 1.067-.561 1.784 1.311.656 1.67-1.585.506-3.021-1.143-1.764-2.706 1.251-1.61 5.092-.025 3.898 2.696-.659 1.204-2.961 2.493-4.74 2.266-3.306-.421-5.237-3.12-6.165-5.64-.119-.325-.324-.958-.495-1.475-.147-.447-.267-.78-.285-.78-.047 2.891 2.336 6.82 4.844 7.777 4.17 1.575 5.7-.658 8.882-2.732 0 0 2.023.55 2.101.519.205-.082 4.046.314 4.145.431-19.246 23.936-22.611 55.186-12.793 80.705.625 1.853.826 1.548-.575.985-1.447-.584-2.89-.219-4.071-.66-2.45-.849-3.223.684-5.286 1.263-2.542.503-2.224 2.155-3.022 3.592-.216.209-.376.382-.272.365.167-.026.748-.398.844-.785.246-.991.745-1.731 1.24-2.068.472-.321.791-.471.867-.292.06.141-.065.582-.323.916-.738.951-.467 4.532-.058 2.071.325-1.953 1.912-3.953 3.816-4.589 1.516-.444 1.946-.313.644.52-1.505 1.12-2.621 2.518-2.952 4.411-.137.785.102 1.491.325.802.478-3.627 4.93-7.097 8.781-4.491.186.17.322.458.239.597-3.92-1.214-7.711.331-7.906 5.264 0 0 .499-.899.84-1.82 1.066-2.884 4.852-3.663 7.254-2.481.447.256.728.937.649 1.012-2.951-1.355-6.734.882-7.362 3.809-.204.952-.3 1.78.479.122 2.95-6.279 8.659-2.408 7.825-1.98-4.677-1.222-6.835 1.522-7.231 5.001.022.327.18.458.28.774.443 1.397.568 2.557.273 4.932-.137.603-.166 4.564-.685 4.322-1.64-.849-2.849-1.746-6.025-.921-.272-.026-.34-.178-.215-.383.167-.276.72-.789 1.661-1.529 2.106-1.567.978-1.229-.719-.176-1.096.679-.802.149.527-2.523.539-1.084.327-1.255-1.165-2.251-1.536-1.025-2.661-1.311-1.38-.285.503.394 1.041.81 1.631 1.133.676.48.569.625-.209 2.186-1.513 3.032-2.047 4.143-2.305 6.293-.627 5.229 4.752 5.483 7.942 4.751l-.375 3.449 9.182 16.645s-39.743-5.819-61.057-8.584c1.613-2.553 16.157-12.245 17.225-14.202.072.021-.808-4.434-1.327-6.391-2.447-9.244-6.8-13.613-3.134-18.92.774-1.044.936-1.411 1.398-1.341.628.093.772.513-.096 1.519-3.736 4.328 1.546 13.502 2.97 19.07.228.892 1.12 5.045 1.184 6.409-.034.409.975.696.756.181-.416-2.8-1.002-5.877-1.319-7-1.165-4.127-2.6-7.037-3.735-11.07-.593-2.531-.691-5.369 1.134-7.638.664-.826.89-1.306 1.248-1.303.303.046.466.168.452.403-.016.257-.244.649-.734 1.225-3.15 3.699.431 10.937 1.996 15.954 1.02 3.27 1.855 6.676 1.893 9.643-.023.201.182.773.798.493-.182-5.559-2.276-11.228-4.042-16.653-1.563-4.265-1.863-7.829 1.473-10.668.282-.189.81-.074.8.265-.013.23-.26.632-.834 1.434-3.241 4.567.076 9.141 1.22 14.111 1.211 4.192 2.39 7.737 2.445 12.024.479.253.697.514.837-.072-.441-6.111-2.48-11.842-4.174-17.325-.804-2.391-1.047-3.518-.906-5.021.195-2.067 1.677-4.503 2.766-5.043.283-.14.448-.149.664.004.298.21.217.31-.582 1.342-1.526 1.97-1.982 4.367-1.231 7.082 1.37 4.2 2.537 7.654 3.275 10.703.808 3.335 1.122 6.174 1.049 8.686 0 0 .812.484.762-.071-.035-3.534-.73-7.296-1.603-10.521-.824-3.044-1.978-6.026-2.825-9.048-1.033-3.627.778-7.164 4.186-8.567l1.439.24c-.078-.048-3.46.678-4.255 4.946-.757 4.066.944 6.881 1.935 10.562 1.213 4.444 2.31 8.345 2.046 12.867.121.176.906.324.902.256.05-3.06-.469-6.051-1.294-9.755-.877-3.937-2.05-5.796-2.797-9.904-.506-2.78.138-6.351 2.366-7.702 3.387-2.382 7.246.226 5.735 3.297-1.134 2.151-4.385 1.218-4.057-.905.196-1.372 2.054-1.481 2.5-.359.109.222.073 1.118.13 1.16.058.042.351-.658.375-.82.171-1.126-1.324-2.313-2.624-1.918-1.78.542-3.125 2.186-3.368 4.614-.258 2.582-.004 4.314 1.651 8.663 1.927 5.067 2.053 10.269 2.111 13.77.255-.059.527.104.624.091.3-4.718-.636-9.745-2.096-14.023-1.768-5.182-2.03-8.233-.889-10.274.167-.3.317-.522.469-.521.282.001.307.428.437 1.33.04.277-.12.681-.224.995-.505 1.946.375 6.275 1.485 8.303.326.58.844.637.534-.353-1.069-2.596-1.616-4.888-1.305-7.811.091-.859 1.098-.321 1.059.111-.126 1.399-.217 3.055.322 4.322 1.102 2.511 1.887 2.728.791-.057-.239-.644-.806-3.302-.303-4.114.236-.146.496-.14.596.055.208 1.485.578 2.98 1.435 4.226.451.649.576.404.4-.35-.348-.893-1.412-3.867-.646-4.39.243-.137.102-.064.562.927.64 1.38 1.018 1.94 1.365 2.366.462.568.639.257.214-.685-.849-1.88-1.267-3.401-.827-3.705.433-.3.502-.122 1.169 1.39.296.672.724 1.661.884 1.904.159.24.325.321.355.145.041-1.7-1.215-3.83-1.784-4.251-.066-.168.158-1.484.158-1.484 2.143 1.446 2.054 2.712 3.299 4.864.136.166.385.024.357-.253-.001-.369-.67-2.105-1.133-2.893-.365-.618-.339-.939.063-1.044.648-.169 1.377.804 2.063 2.452.319.765.823 1.255.878.886.031-.203-.488-2.131-.953-2.734-.773-1.004-.239-1.55.687-.591.42.436 1.021.805 1.488 2.236.272.835.589.983.682.361.104-.698-.903-2.588-1.678-3.183-.6-.461-.911-.923-.688-1.169.688-.704 2.712 1.642 3.231 3.626.153.585.521.926.657.698.196-.098-.077-1.513-.468-2.207-.587-1.541-2.267-3.192-3.405-3.187-.22 0-.641-1.254-.641-1.254 2.904-.016 5.2 3.568 5.517 4.83.602 2.396 1.115 2.199.59.099-1.027-4.105-5.658-6.994-8.677-5.52-1.72.84-1.157 3.528.514 3.329.672-.131 1.381-.65.227-.613-1.268-.065-1.407-1.903-.079-2.075 2.135-.276 2.159 2.849.402 3.289-1.82.439-3.381-.837-2.962-2.579.792-3.292 5.316-3.619 9.249-.291 1.107.936 2.243 3.628 2.529 5.27.094.543.641.807.721.752.186-.129-.778-3.081-1.125-3.847-1.295-4.308-8.079-5.498-8.109-5.289 0 0-2.898 1.181-5.646 3.424l-6.012-1.41c18.915-21.036 25.135-55.105 12.763-81.663.186.153 2.94 1.259 4.031.677.773-.22.998-.302 1.76.085.859.434 1.849.304 2.956-.394.833-.526.876-.719 1.345-.592 1.388.377 2.438-.26 3.008-2.122.223-.732.415-1.498.284-1.4-.077.056-.335.68-.498 1.07-.45 1.078-.774 1.45-1.294 1.747-.856.49-1.251.089-.797-.777.389-.544.863-2.022.546-2.772-.055-.134-.141.332-.301.692-1.275 2.863-2.374 4.25-3.946 4.379-.737.06-1.052-.09-.765-.44 3.071-2.281 3.325-5.267 3.086-5.044-.82 1.63-2.252 4.029-4.144 4.825-1.634.688-3.847.454-4.959-.485-.632-.533.437-.508 2.012-.299 2.654.352 5.612-2.595 5.608-5.442-.021-.53-.253.002-.592.818-1.418 2.876-3.403 4.752-7.14 3.563-.292-.093-.465-.307-.612-.436-.565-.495-.295-.739.921-.407 2.721.74 5.485-1.336 5.899-4.272.198-1.409-.02-1.423-.413-.41-.553 1.43-2.445 5.784-6.708 3.652-.747-.526-1.111-1.114-.812-1.149 2.54.873 5.013.684 6.412-2.389a6.335 6.335 0 00.462-3.886c-.018-.788-.209-1.415-.188-2.21.056-2.132.036-4.498.479-6.775.243-.168.274-.119.958.457 1.342 1.132 2.49 1.083 4.07.757 2.027-.37 1.834-.278-.497 1.561-.486.384-.991.865-1.052.942-.645.826.415.305 1.261-.438 1.176-1.033 1.426-1.275 1.624-1.245-.119 1.284-.837 2.762-1.244 3.77-.502 1.109-.537 1.377.208 1.789.323.178.946.527 1.288.744 1.544.978 1.48.356.264-.531-1.641-1.198-1.662-1.153-.925-2.64.863-1.743 1.388-3.285 1.976-5.05 1.453-4.361-1.801-7.35-6.829-6.484-.293.089-.248-2.44-.107-3.091.077-.23-.699-.29-1.222-1.104.215-.133-5.81-9.705-8.44-15.362 18.982 2.738 38.091 5.211 57.126 7.983zm-14.139 14.285a.638.638 0 01.066.061c-.026-.039-.049-.058-.066-.061zm18.727-13.203l20.355 2.96-5.72 41.227-1.81-.221s-2.599-5.961-3.118-8.674c-.129-.677-.39-1.622-.492-1.993-.23-.84-.457-.973.072-1.39 1.061-.832 1.165-2.814.409-3.886-.231-.346-.39-.264-.267-1.005.105-.637.229-1.036.096-1.392-.221-.595-.42-.663.101-1.207.545-.57 1.297-1.512 1.668-2.285.601-1.247.348-1.533 1.216-1.093 2.19 1.015 4.332-.235 4.587-2.404.216-1.825-1.366-3.71-3.553-3.521-.504.043-.595-.01-1.281-.56-.197-.157-.485-.471-.749-.61-.33-.175-.619-.206-.73-.46-.217-.498-.996-1.352-2.08-1.462-.663-.068-1.485-.414-1.695-.558-.349-.238-1.425-.242-2.738-.625-.583-.17-1.095-.023-1.384-.062-.827-.11-.476-.157-.547-.766-.588-3.208-3.661-3.283-5.381-1.184-.64.828-1.203 2.113-1.597 3.468l-8.117-1.297 12.755-11zm-62.963-9.065c2.51 4.057 4.826 8.532 7.35 12.669 3.116 5.019 3.166 5.55 1.496 9.903-.937 2.46-1.266 3.012-2.385 2.653-1.05-.337-2.077.323-2.37 1.305-.551 1.843 1.22 3.284 3.307 2.626 1.101-.347 1.143-.396.561 1.196-.835 2.281-2.115 4.164-2.738 4.005-1.16-3.482-5.474-1.752-4.646 1.814-.499.529-.065 1.354.052 2.001 0 0-.002.075-2.376.447-11.602 1.466-26.592 7.52-35.238 13.99l7.756-56.701 29.231 4.092zm62.862 17.032c.47.056.9.262 1.226.628.853.959.458 2.067-1.201 4.022-1.849 2.79-1.808 5.205-1.944 8.398-.276 1.825-1.189 3.464-2.349 4.061-1.88.969-3.741-.965-2.617-2.486.572-.754 1.462-.137 1.801-.879.149-.452.246-1.183.35-1.52-.002-1.409.192-5.675.404-7.135.201-1.255.872-2.77 1.654-3.865.739-.9 1.78-1.333 2.676-1.224zm1.968 5.277c-.43.244-1.074.157-1.095-.23.06-.393.572-1.601.82-1.707 1.439-.102.726 1.67.275 1.937zm2.371-1.656c1.158.125 1.515 2.995.28 4.464-.196.005-1.592-.206-1.602-.181.018-.293.194-.855.379-1.39.158-.459.262-.81.185-1.338-.194-1.319-.406-1.592.758-1.555zm2.19.358c.042.005.087.012.135.02 1.169.174 1.527 2.387.822 4.645-.101.325-.182.668-.323.728-.471-.195-1.895.06-1.919.053-.11-.14.038-.79.298-1.358.481-1.05.677-1.767.466-2.956-.127-1.02-.11-1.207.521-1.132zm2.826 1.033c1.256.389.853 3.736.167 4.742-.15.141-.629.032-.81.067-1.136.134-.915.322-.55-1.29.25-1.104.397-1.97.353-2.919-.027-.418-.021-.705.297-.686.188-.008.381.026.543.086zm-6.605.37c.416.732-.218 2.193-.691 2.701-.537.558-.724.584-.52.892.086.13.215.751.047.979-.312.422.305.596.836.958.861.59 1.189 1.492 1.658 3.118.164.567.684.471.527-.136-.134-.52-.109-1.252-.18-1.754-.076-.516.122-.74.71-.506.883.35.787.128 1.138.062.79-.275 1.204.336.717.57-.28.135-.838.16-1.462.227-.53.057-.478.535.035.608.475.067 1.886-.093 2.809-.216 2.646-.351 2.788-.722 2.352.598-.575 1.747-1.815 2.94-3.605 3.144-1.559.178-5.012-.402-6.489-1.09-1.374-.835-1.408-1.285-1.675-2.56-.365-1.745-.312-4.602.623-6.13.815-1.288.732-1.152 1.312-.997.498.248 1.231.16 1.431-.119.1-.132.338-.366.427-.348zm9.587 2.41c.037.757-.06 1.517-.417 2.048-.197.245-1.085.1-1.429.055-.21.015.176-2.519.435-2.763.623-.653 1.207.03 1.411.66zm-25.72-4.188l2.513.394-.084.575-2.967-.451.538-.518zm8.792 1.379l-.105.746-3.791-.545-.682 4.67 4.237.63-.118.974-5.672-.844.949-6.382 5.182.75zm19.286 2.652c3.768 1.366 1.446 5.145-.046 5.178-1.859.04-3.37-.375-2.648-1.801.653-.943.488-2.259.765-3.162.395-.253 1.354-.424 1.929-.215zm-29.5-2.845l3.734.58-.112.77-4.272-.63.65-.72zm8.203 1.919c.597.087 1.014.612.932 1.172-.082.561-.632.946-1.229.859-.597-.087-1.014-.612-.932-1.173.081-.56.632-.945 1.229-.858zm10.49 1.937c.685.173.599 1.18.273 1.431-.414.287-1.073.043-1.205-.507-.118-.496.386-1.024.932-.924zm-19.963-2.459l4.782.708-.092.625-4.836-.664-.069-.422.215-.247zm26.886 4.185c.666.082.996.665.516 1.05-.72.56-1.848-.62-.516-1.05zm-51.167-6.046c-1.194.692-.459 1.651 1.081 1.054 3.311-1.283 7.622.743 10.353 2.61.535.36.709-.274.207-.803-2.389-2.64-7.991-4.77-11.641-2.861zm46.52 5.559c.747.112.609.984.083 1.227-.508.125-.583.059-.885-.104-.413-.223.066-1.227.802-1.123zm2.644.398c.88.17.537 1.828-.712 1.03-.414-.56-.008-1.138.712-1.03zm-24.847-2.733l4.642.714-.103.71-4.342-.673-.197-.751zm-30.284-2.696c1.132 1.13.73 1.131-1.274.129-1.334-.489-2.731-.504-3.639-.31-1.075.23-1.295.087-.76-.489 1.368-1.077 4.598-.35 5.673.67zm5.878 2.455c-.17.277-.528-.318-1.132-.3-.862.024-.624.097.125 1.174.75 1.079 1.008 1.345.9 1.703-.158.526-.04.845.539.869.279.011.561.356.929.776 1.272 1.453 1.917 2.177 2.362 2.437 1.812 1.06 1.073.054-.041-.923-1.858-1.628-2.441-2.618-1.053-1.932 1.475.73 3.981.802 5.294.291.647-.251 1.1-.715 1.906-.34 1.13.528 1.679-.06 1.404-.475-.489-.402-1.659-.966-2.714-1.87-2.317-1.548-4.939-1.893-6.822-1.192-1.11.413-1.41-.035-.321-.446 4.34-1.458 7.251.967 9.624 2.813.411.32.728.345.755.165.019-.604-1.079-1.136-1.506-1.47-3.304-2.585-6.997-3.793-10.249-1.28zm24.805 1.757l4.04.59-.109.75-3.741-.56-.19-.78zm-33.009-3.825c1.119.158 3.416 1.455 3.262 2.23-.091.29-.661-.064-1.146-.445-.938-.736-2.486-1.121-4.003-1.078-1.165.034-1.552.158-1.695.007-.271-.885 2.542-.86 3.582-.714zm43.601 6.91l-.189 1.344c-2.215-.169-3.001 2.054-1.78 3.533 1.001 1.213 2.967 1.078 4.142-.264.206-.239.249-.395.332-.25.053.092.072.35.089.6.049.726-.193.876-.778 1.406-.946.859-1.234 2.072-.864 3.06.102.272.339.674.264.832.282.033-3.552 6.913-8.136 9.995-.739.325-1.157-.244-.708-.876 4.33-6.598-1.018-14.09-2.542-20.77l10.17 1.39zm-29.488-3.04l.57.132c-.941 3.193-4.232 2.178-3.977-.498l.489.055c.296 2.567 2.696 1.882 2.918.311zm-19.038-2.7s.19.4.161.603a58.88 58.88 0 01-.354 2.184c-.653 3.11-4.976 3.075-4.262.437.419-1.103 1.97-1.006 2.196.08.361 1.377.694-.219.775-.72.564-.726 1.033-1.638 1.484-2.584zm20.391 3.192c.173.03.463.217.672.5.238.321.113.446-.584.666-.754.238-1.069.162-.715-.49.22-.404.404-.714.627-.676zm31.68 4.775c.096.018.324.172.216.505-.178.555-.75.802-.867.648.131-.288.354-1.075.651-1.153zm-36.925-4.245c-.117.218-.247.097-.574-.252-.361-.385-.309-.59.146-.763.653-.254.535.814.428 1.015zm-12.709-2.717c.401 2.202 1.882 2.145 2.779.508l.619.08c-.53 2.684-4.166 2.106-3.816-.512l.418-.076zm-1.315.075c.221 0-.037.678-.037.678s-.555-.377-.159-.632a.504.504 0 01.196-.046zm5.325.956c.074.006.207.08.344.195.322.272.242.393-.209.65-.694.398-.935.086-.503-.52.16-.225.272-.334.368-.325zm46.457 7.222c.265.023.619.189 1.373.498 2.077.851 4.965 1.251 7.512.972.805-.088 1.194 1.274.64 2.141-.245.383-.22.44.264 1.072.686.898.631 2.177-.145 3.236-.564.77-.524.7-.207 2.202.144.687.356 1.398.386 1.586.356 2.197 1.628 4.917 2.324 7.139.783 1.605-1.789-.244-1.789-.244s.61 1.05 1.502 1.9c.864.829 2.828.638 3.575 1.602.164.293-1.05 5.807-1.277 5.932-8.515-1.621-22.854-3.404-22.854-3.404l2.106 4.311c3.983 2.194 8.07 2.384 12.256.667-.143.314 4.32 3.207 8.213 4.017l-.361 2.643c-2.87-.73-5.815-1.223-8.289-3.217 0 0-2.632.615-5.232.985l11.983 15.599-.325 2.269s-5.198-6.093-10.473-12.877l-4.099 28.991 12.051 1.979c-1.481 7.485-2.028 12.301-3.208 20.948-6.513 4.672-15.173 9.035-22.915 11.285-2.972-3.601-5.311-7.374-7.263-11.328-.041-.084.282-.185.241-.268-.059-.122-.482-.226-.544-.346-1.202-2.331-3.855-8.696-3.279-8.753 1.063.226 6.123.371 7.523-2.285.034-.177-.009-.693.211-1.259.571-1.468 1.087-3.747.708-5.299-.683-2.797 2.41-1.482 2.493-1.29l1.454-9.979c-4.646 2.543-9.322 5.031-15.108 5.515-1.073-16.985 7.439-36.676 25.204-48.286l-.853-.195c-18.462 13.361-25.224 30.023-25.123 48.621 0 0 .019.584.007.779-.029.458-.169.614-.646.878-.445.193-.856.41-.865.727-.016.594-.617.526-1.398.409-.317-.349-.856-.046-1.166.047-.414-.002-.388-1.587-1.072-.522-.303.691-.685.691-1.497.207-.521-.228-.57.023-.135.69.615.833 1.065 2.012.899 2.321-.371.694-.364 1.449.677 2.03-.064-.005-.992 2.137.727 2.322.543.084 1.883.546 1.883.546.027.439-.154.66-.396.817l-1.107-.731-.505 1.284-1.569-.335 3.201 5.031.959-3.422 4.428 1.192c.466 1.868 3.586 12.336 11.222 20.898 0 0-5.04 1.253-6.463 1.669l-.422-2.9-.894.901-1.284-.514-.322 1.119-1.238.186 1.853 1.767-5.535.745c-11.821-25.205-14.025-58.147 9.812-89.179l4.768.752-1.151 1.362 1.387-.005.225 1.147 1.061-.297.831 1.326 1.601-2.987s3.373.564 3.801.585c.336.013 7.942-4.37 7.826-4.597-.084-.163-8.141 3.799-8.359 3.57 0 0-.759.058-.092-.502 1.197-1.006 2.05-1.779 3.336-3.287 2.046-1.953 3.213-4.53 3.885-6.291.026-.127.106-.414.022-.645-.479-1.32-.216-2.1 1.176-3.374.487-.446.531-.568.458-.896-.163-.74.18-1.303.793-1.696.244-.156.397-.225.603-.207zm-40.961-.96c2.829 1.592.047 3.803-1.853 1.247-.996-1.34-1.928-1.4-2.687-.637-.343.344-.025 1.08.376.92.372-.15.759-.335 1.196.17 3.313 3.83 6.705-.363 3.605-1.98-.379-.234-1.01.07-.637.28zm-12.331-1.907c.028.003.059.022.099.054.13.104-.029 1.264-.242 1.73-.834 2.4-3.546 7.864-6.98 4.497-1.364-1.337.434-3.935 2.122-2.718 1.318.95.096 2.583-1.3 1.34-.678-.602-.589.45.003.834.996.683 3.072.063 4.218-1.415.457-.59.964-1.675 1.586-3.253.313-.794.37-1.08.494-1.069zm-.3 4.321c.056 1.831-1.847 4.746-3.973 4.908-1.628.124-3.435-1.124-3.165-1.996.078-.253.141.106 1.536.535 1.949.6 3.366-.227 4.854-2.389.47-.682.682-1.05.748-1.058zm4.838 1.576c-.031.2-.211.718-.351 1.057-.335.805-.515 1.103.52.83.684-.185 1.667-.325 2.567.325.993.716 2.035.762 3.375.442 1.15-.184 1.686-.11 2.252.311 1.032.769.704.326.782-1.22.057-1.09-.276-.994-.737-.646-.303.228-.845.21-1.396-.177-.656-.46-1.666-.434-2.036-.228-.369.205-.854.17-1.445-.336-.391-.336-.652-.228-1.212-.083-.924.24-1.228-.006-1.65-.418-.386-.356-.601-.293-.669.143zm-4.505.654c.114.015.067.429-.133 1.247-.81 3.008-3.611 4.342-6.398 2.423-1.213-.896-.961-1.368.27-.738 1.963 1.004 4.192.324 5.58-2.043.355-.607.581-.903.681-.89zm7.012 3.248c1.4.793 3.074.85 3.568.4.554-.507-.182-.517-.572-.486-1.342.104-2.22-.133-2.714-.43-1.458-.782-1.449-.163-.282.516zm-15.745-.536c1.602 2.493 1.792 2.962 3.083 5.72 9.302 21.094 9.616 46.09-1.594 67.111-3.081 5.802-7.077 11.59-11.268 16.098l-4.157-.562 1.648-1.319-1.952-.148.029-1.026-1.53.231-.484-1.626-1.837 3.294-7.697-1.1c20.424-13.829 26.885-33.249 25.861-49.742 0 0 1.635-.666 1.92-1.153.07-.118.26-.636.375-.701.73-.314 1.234-.649 1.553-.522.184.073.269.169.379.379.508.966.625 1.123 1.099.293.342-.596.268-.84 1.068-.6.443.308 1.081.394 1.036.296-.033-.072-.603-.92-.862-1.392-.614-1.116-.806-1.329-.671-1.76.204-.655-.259-1.462-.588-1.696.367-1.792-.346-2.08-2.38-2.789a1.61 1.61 0 01.316-.816l1.095 1.099.696-1.642 1.656.328-4.195-5.101c-.157 1.244-.278 2.508-.573 3.685-2.251-.446-4.387-1.458-4.44-1.332-2.254-7.848-6.418-14.813-11.065-20.451l5.703-1.637 1.12 2.937.596-1.485 1.296.412.367-.954 1.494.02-1.407-1.68 4.31-.67zm31.399 7.81c.17.271.331.312.572.572l-.6.285c.076-.341.07-.523.028-.858zm-35.732-4.27c-.453-.066-.875.228-.937.654-.062.427.258.825.712.891.453.066.871-.225.933-.651.062-.427-.254-.828-.708-.894zm4.447.772c-.455-.066-.875.227-.938.654-.062.428.256.828.712.894.455.066.874-.227.937-.654.062-.428-.256-.828-.711-.894zm-14.465-1.526c2.348 2.454 4.39 5.503 6.728 10.149l-.143.559.856.445s4.027 6.791 3.373 9.453c-1.736.086-2.956-.689-6.359 1.522l-1.881-.679-2.109.17s-.061.604.417.88c.208.12.696-.667.93-.607.976.252 1.973.413 1.747.679-.221.053-1.635 6.012-.788 7.448.386 1.393-.026 1.322-.579 1.487-.613.264-2.278-.723-2.278-.723l-.991 9.645c5.405-4.329 15.765-6.234 15.012-5.973 1.365 25.305-12.811 39.992-26.897 50.22l6.457.975s-6.797 7.584-7.551 9.844c.204.818.847 2.543-.796 3.449-.576.443-.971 2.775-.971 2.775-3.415-.384-6.198-1.921-10.305-1.201-.424.07-.201-2.075-.165-2.463-1.049-1.233-.925-3.414.278-4.38.446-.355.25-.161.13-1.601-.191-2.298-1.465-5.596-2.488-7.743-.335-.703-.655-1.515-.726-1.761-.783-1.178-3.311-1.054-3.57-1.372-.24-.253.414-5.963.709-6.06 9.58 2.13 24.856 3.508 24.856 3.508l-3.287-5.928c-4.742-2.563-12.083-.432-11.775-.218.013.021-5.089-3.627-8.976-3.779l.532-2.769c3.402.482 6.453 1.533 8.97 3.448l4.89-.951-12.209-16.126.504-2.292s3.107 4.193 6.497 8.682c2.907 3.851 4.095 4.601 4.095 4.601l4.267-29.145-12.258-1.812.542-6.003-.241-.566.479-4.295.404-.385.149-1.845-.077-.277.482-4.388.318-.33.441-2.742c6.721-4.586 23.357-11.525 23.357-11.525zm10.354 2.352l.57 6.09 1.122-.977 1.41.648.299-1.34 1.405-.243-4.806-4.178zm48.585 8.064c-.456-.066-.875.227-.938.654-.062.428.256.828.711.894.456.066.875-.227.938-.654.062-.428-.256-.828-.711-.894zm-3.929-.077c-.455-.066-.875.227-.937.655-.063.427.256.828.711.894.455.066.875-.227.937-.655.063-.427-.256-.828-.711-.894zm-47.348-6.185c-.455-.066-.874.227-.937.654-.062.428.256.828.711.894.456.067.875-.226.938-.654.062-.428-.256-.828-.712-.894zm50.138 7.767l-6.476 4.233 1.618.171.071 1.52 1.53-.41 1.017 1.179 2.24-6.693zm2.192 2.058c-.455-.066-.875.227-.937.654-.062.428.256.828.711.894.455.066.875-.226.937-.654.063-.428-.256-.828-.711-.894zm-45.759-5.636c-.455-.066-.875.227-.937.654-.063.428.256.828.711.895.455.066.875-.227.937-.655.062-.427-.256-.828-.711-.894zm3.472 1.166c-.455-.066-.874.227-.937.654-.062.428.256.828.711.894.455.067.875-.226.938-.654.062-.427-.256-.828-.712-.894zm-3.404.681c-.144 2.093-.246 4.586-.491 6.669l1.235-.848 1.186.662.632-1.208 1.377.136-3.939-5.41zm35.064 6.863c-.455-.066-.875.227-.938.654-.062.428.256.828.712.894.455.066.874-.227.937-.654.062-.428-.256-.828-.711-.894zm-37.7-5.344c-.456-.066-.875.227-.938.654-.062.428.256.828.712.894.455.067.874-.227.937-.654.062-.428-.256-.828-.711-.894zm40.92 6.143c-.455-.067-.875.226-.937.654-.063.428.322.837.711.894.388.057.875-.227.937-.654.062-.428-.256-.828-.711-.894zm-.733 1.601l-5.425 3.902 1.537.363.299 1.375 1.112-.648 1.088 1.007 1.389-5.999zm2.467 1.364c-.455-.066-.874.227-.937.654-.062.428.256.828.711.894.455.067.875-.226.938-.654.062-.427-.256-.828-.712-.894zm-37.699-4.02c-.455-.066-.874.227-.937.655-.062.427.256.828.711.894.455.066.884-.29.937-.655.054-.364-.255-.827-.711-.894zm-20.265-2.464l-1.71.889.39.002s.786 1.158.776 1.23c-.011.072.577.065.577.065l-.033-2.186zm23.996 4.18c-.455-.066-.875.227-.938.654-.062.428.256.828.712.894.455.066.874-.227.937-.654.062-.428-.256-.828-.711-.894zm-6.066.245c-.455-.066-.875.227-.937.655-.063.427.256.828.711.894.455.066.875-.227.937-.655.062-.427-.256-.827-.711-.894zm33.821 6.512c-.455-.067-.875.226-.937.654-.063.428.256.828.711.894.455.066.875-.227.937-.654.063-.428-.256-.828-.711-.894zm-3.419.663c-.455-.067-.874.226-.937.654-.062.428.256.828.711.894.455.066.875-.227.937-.654.063-.428-.255-.828-.711-.894zm33.177 5.02l1.457 1.997-3.735 25.58-1.677-.212 3.955-27.365zm-66.696-9.514c1.395.204 2.923.619 3.302 1.487.639 1.006-.948.422-2.355.416-1.295-.039-.592.312 1.192.672 2.458.498 3.423.701 3.714 1.291.136.53-.066.845-.101 1.39l-2.795-.533c-1.46-.211-2.313-.361-2.761-.321-.357.033-.296.307-.195.435.053.068 1.171.245 2.474.467 3.509.599 4.271.824 4.366 1.925.046 1.003-.779.731-4.343-.165-1.592-.358-2.511-.128-2.759-.055-.423.125 1.097.53 1.613.526.323 0 2.611.573 3.444.848.704.206.073.096-.35.454-.29.306-.271.708-.675.845-.495.162-1.409.025-3.049-.213-1.876-.273-2.813.028-.254.507 1.653.31 1.751.297 1.827.768.213 1.167-.616 1.246-2.349 1.253-.83.012-2.022-.236-2.922-.428-3.553-.762-4.679-1.746-4.947-3.302-1.001-5.806 1.727-8.864 6.994-8.377.292.028.607.062.929.11zm36.234 5.521l-4.861 4.947 1.645-.343.524 1.609 1.372-.656 1.143.904.177-6.461zm-30.416-3.736c.175.272.056.439-.318.566-.315.108-.8-.076-1.11-.258-.41-.241-.348-.978.022-1.005.529-.022 1.135.296 1.406.697zm-29.31-4.55l-2.506 1.67.056.086 3.076-.654-.626-1.102zm62.071 9.894c-.455-.066-.875.227-.937.655-.063.427.256.827.711.894.455.066.875-.227.937-.655.063-.427-.256-.827-.711-.894zm30.073 5.057s1.784 2.216 2.514 3.143l-.766-.115-.2 1.513 2.438.381 1.161 1.429-3.727-.558-.225 1.542 4.617.675.073-.664 1.597 1.817-2.288 17.184-8.796-1.305c1.2-8.451 2.415-16.589 3.602-25.042zm-60.638-6.919c-.181.353-.464.312-.919.058-.675-.377-.465-1.103.088-1.102 1.038.039 1.162.509.831 1.044zm2.722.726c-.455-.066-.874.227-.937.655-.062.427.256.828.711.894.456.066.875-.227.938-.655.062-.427-.256-.827-.712-.894zm-2.988.172c.319.065.617.267.774.462.389.493.171.869-.369 1.042-.606.194-.949-.241-1.022-.894-.049-.441.251-.649.617-.61zm25.577 5.793c-.457-.067-.878.227-.941.657-.063.429.257.831.714.897.457.067.879-.227.941-.657.063-.429-.257-.831-.714-.897zm-27.376-3.019c.707.126.822.839.398 1.15-.604.418-1.4.086-1.448-.405.04-.538.553-.817 1.05-.745zm24.239 3.846c-.455-.066-.875.227-.937.654-.062.428.256.828.711.894.455.066.875-.227.937-.654.063-.428-.256-.828-.711-.894zm2.853.939l-4.538 5.277 1.574-.338.742 1.252 1.044-.63 1.314.853-.136-6.414zm-29.087-3.238c.659.099.773.613.228.989-.37.256-.74.212-1.076-.124-.508-.508.009-.99.848-.865zm31.518 4.657c-.455-.066-.874.227-.937.654-.062.428.256.828.711.894.456.067.875-.226.938-.654.062-.427-.256-.828-.712-.894zm-26.943-3.295a.78.78 0 00-.903.66c-.063.427.256.827.711.894.455.066.875-.227.937-.655.063-.427-.29-.832-.745-.899zm61.085 9.058l-.24 1.644 4.647.679.24-1.644-4.647-.679zm-61.262-7.418l-2.672 5.849 1.606-.58.798 1.027 1.011-.874 1.498.607-2.241-6.029zm3.068 1.123c-.455-.066-.875.227-.937.655-.063.427.256.828.711.894.455.066.875-.227.937-.654.063-.428-.256-.828-.711-.895zm-5.849-.532c-.455-.067-.874.226-.937.654-.062.427.256.828.711.894.455.066.875-.227.938-.654.062-.428-.256-.828-.712-.894zm63.613 9.743l-.212 1.475 4.648.676.211-1.466-4.647-.685zm-38.53-3.634c-.456-.066-.875.227-.938.655-.062.427.256.828.712.894.455.066.874-.227.937-.655.062-.427-.256-.827-.711-.894zm38.132 6.388l-.233 1.59 4.648.676.233-1.59-4.648-.676zm-95.866-13.743l1.63.266-4.019 27.713-1.363-1.815 3.752-26.164zm-.69-.045l-3.78 25.314-2.651-3.509.826.11.252-1.726-2.679-.409-.993-1.214 3.824.56.247-1.695-4.534-.675-.15 1.025-1.903-2.558 2.452-16.532 9.089 1.309zm58.275 9.264l-3.361 5.665 1.683-.607.698.863.938-.586 1.323.856-1.281-6.191zm-65.315-9.202l-.26 1.617 4.58.667.237-1.622-4.557-.662zm68.036 10.227c-.455-.066-.875.227-.937.654-.063.428.256.828.711.894.455.066.875-.227.937-.654.063-.428-.256-.828-.711-.894zm-5.622-.729c-.455-.066-.875.227-.937.654-.063.428.256.828.711.894.455.066.875-.227.937-.654.062-.428-.256-.828-.711-.894zm-19.438-2.533c-.455-.066-.875.227-.937.655-.063.427.256.827.711.894.455.066.875-.227.937-.655.063-.427-.256-.828-.711-.894zm60.235 9.398l-.249 1.704 4.648.676.248-1.704-4.647-.676zm-60.568-7.826l-.835.899-1.504-.734 1.259 6.427 3.63-5.985-1.672.606-.878-1.213zm-43.042-5.806l-.236 1.619 4.557.662.236-1.618-4.557-.663zM313.536 139.5l-.246 1.688 4.645.676.249-1.688-4.648-.676zm-103.61-13.625l-.236 1.622 4.556.662.237-1.621-4.557-.663zm65.169 9.788c-.457-.066-.878.228-.941.657-.062.43.257.832.714.898.457.066.879-.228.941-.657.063-.429-.257-.831-.714-.898zm-24.932-2.799c-.457-.067-.878.228-.941.657-.063.429.257.831.714.898.457.066.879-.228.941-.657.063-.43-.257-.832-.714-.898zm5.269.915c-.457-.066-.879.228-.941.657-.063.429.257.831.714.898.457.066.878-.228.941-.657.062-.43-.257-.831-.714-.898zm57.699 8.501l-.223 1.523 4.645.675.226-1.522-4.648-.676zm-38.301-4.844l-1.129.831-1.36-.584 2.388 6.089 2.504-5.812-1.539.642-.864-1.166zm-65.291-8.911l-.268 1.84 4.556.663.269-1.841-4.557-.662zm42.886 7.088c-.457-.066-.879.228-.941.657-.063.43.257.832.714.898.457.066.878-.228.941-.657.063-.429-.257-.831-.714-.898zm-.288 1.595c-.387.183-.601.573-1.001.732l-1.418-.822-.213 7.788 5.238-6.626-1.956.024-.65-1.096zm-42.99-5.996l-.279 1.913 4.556.663.28-1.913-4.557-.663zm68.311 10.84c-.457-.066-.879.228-.941.657-.063.429.257.831.714.898.457.066.878-.228.941-.657.063-.43-.257-.831-.714-.898zm-5.364-.689c-.457-.067-.878.227-.941.657-.062.429.257.831.714.898.457.066.879-.228.941-.658.063-.429-.257-.831-.714-.897zm-63.353-7.375l-.279 1.917 4.556.662.28-1.916-4.557-.663zm66.013 10.036c-.457-.066-.878.228-.941.657-.063.43.257.831.714.898.457.066.878-.228.941-.657.063-.429-.257-.831-.714-.898zm11.674 1.761c4.412.777 4.865 2.21 4.216 6.837-.518 3.693-1.898 4.965-4.862 5.26-1.08.108-4.941-.699-5.997-1.191.028-.32-.416-1.133-.458-1.715.292-.034 1.165.212 2.829.608 1.349.321 1.731.166 1.336-.149-2.489-.944-4.262-1.044-6.668-1.848.067-.699-.412-1.594-.412-1.594.142-.031 3.761.875 5.708 1.1.859.091.4-.361.065-.48-2.216-.633-3.692-.798-6.041-1.429.149-.564-.086-1.132-.408-1.627 0 0 1.211.165 3.699.563 1.309.21 2.444.428 3.02.492.963.139.937-.296.11-.475-1.002-.254-5.008-.86-5.008-.86.317-.086.953-1.716.802-1.756 0 0 1.036.171 1.699.244 3.229.354 3.777.482 3.853.379.476-.301-.644-.609-1.831-.779-.513-.073-1.275-.076-1.231-.337.04-.24.1-.736-.087-1.282 2.075-.425 3.904-.272 5.666.039zm-38.348-4.608c-.457-.067-.878.227-.941.657-.063.429.257.831.714.898.457.066.878-.228.941-.658.063-.429-.257-.831-.714-.897zm31.59 4.759c.546.082.583 1.03.05 1.099-.819.106-1.224-.13-1.132-.563.052-.246.728-.589 1.082-.536zm-26.326-3.009c-.457-.066-.879.228-.941.657-.063.43.257.832.714.898.457.066.878-.228.941-.657.062-.429-.257-.831-.714-.898zm23.44 4.3c1.875.257.556 2.508-.758 1.435-.652-.531.008-1.539.758-1.435zm-29.897-2.394c-.038-.009-.064.024-.072.113l-.629 7.335 5.498-6.138-1.882.365-.609-1.21-1.071.574c-.441.236-1.03-.991-1.235-1.039zm27.773 4.799c.824.232 1.269 1.104.63 1.399-1.393.349-1.837-1.52-.63-1.399zm-2.251 1.303c-.458-.067-.879.228-.942.657-.062.429.257.831.715.898.457.066.878-.228.941-.657.062-.43-.257-.832-.714-.898zm3.087 1.121c.717.094.911 1.118.158 1.322-.16.044-.615.025-.793-.141-.751-.701-.229-1.244.635-1.181zm-31.162-3.307c-.457-.067-.878.227-.941.657-.063.429.257.831.714.897.457.067.878-.227.941-.657.063-.429-.257-.831-.714-.897zm63.073 10.167l-3.209.521-.199 1.363c1.398-.206 2.312-1.116 3.408-1.884zm-28.839-3.522c.501.287.547.984.056 1.145-.386.127-1.358-.043-1.554-.373-.483-1.023.887-1.094 1.498-.772zm-28.954-3.936c-.457-.067-.878.227-.941.657-.063.429.257.831.714.897.457.067.879-.227.941-.657.063-.429-.257-.831-.714-.897zm-3.586.85c-.403-.059-.775.2-.83.579-.055.379.227.733.63.791.403.059.774-.2.829-.579.056-.378-.226-.733-.629-.791zm34.232 6.158c-.457-.066-.878.228-.941.657-.062.43.257.832.714.898.457.067.879-.228.942-.657.062-.429-.257-.831-.715-.898zm-37.073-5.348l-1.044 6.864 5.699-4.913-1.743.099-.52-1.498-1.137.486-1.255-1.038zm30.729 6.085c-.457-.067-.878.228-.941.657-.063.429.257.831.714.898.457.066.878-.228.941-.657.063-.43-.257-.832-.714-.898zm24.406 3.576l-.988 1.165 2.443-.853-1.455-.312zm-21.24-2.157c-.457-.066-.878.228-.941.657-.062.43.257.832.714.898.457.067.879-.228.941-.657.063-.429-.257-.831-.714-.898zm2.666 1.245l-1.183 1.182-1.247-.583-.569 1.207-1.556-.282 4.476 4.896.079-6.42zm-39.701-5.232c-.457-.066-.879.228-.941.657-.063.43.256.832.714.898.457.067.878-.228.941-.657.062-.429-.257-.831-.714-.898zm76.067 12.202l-7.906 57.019-28.913-4.146-9.671-16.994c.117-2.522.633-5.054 2.234-8.229 1.053.926 3.663.883 4.005-2.064.224-1.93-2.786-3.372-4.569-2.154.353-1.846 1.563-4.521 2.839-5.176.696.793.725 1.821 2.561 1.802 1.305-.013 2.51-1.206 2.186-2.846a3.907 3.907 0 01-.041-1.231c.048-.322.163-.89.143-1.22-.026-.436.008-.9.008-.9 16.061-2.3 28.133-7.962 37.124-13.861zm-70.579-9.265c-.457-.066-.878.228-.941.657-.063.429.257.831.714.898.457.066.878-.228.941-.657.063-.43-.257-.832-.714-.898zm-4.013.192c-.458-.067-.879.228-.942.657-.062.429.257.831.715.898.457.066.878-.228.941-.657.062-.43-.257-.832-.714-.898zm40.896 6.329c-.457-.066-.878.228-.941.657-.063.43.257.832.714.898.457.067.878-.228.941-.657.063-.429-.257-.831-.714-.898zm-44.04-5.557l-2.347 7.05 6.424-4.591-1.526-.254-.123-1.278-1.496.226-.932-1.153zm38.083 7.115c-.457-.067-.879.227-.941.657-.063.429.257.831.714.897.457.067.878-.227.941-.657.063-.429-.257-.831-.714-.897zm3.528 1.375c-.457-.067-.878.227-.941.657-.063.429.257.831.714.897.457.067.878-.227.941-.657.063-.429-.257-.831-.714-.897zm-45.607-5.669c-.457-.066-.879.228-.941.657-.063.429.256.831.714.898.457.066.878-.228.941-.657.062-.43-.257-.831-.714-.898zm48.677 7.678l-1.488.766-1.136-.893-.515 1.495-1.133.367 4.009 3.564.263-5.299zm2.975 2.547c-.457-.067-.878.227-.941.657-.062.429.257.831.714.897.457.067.879-.227.941-.657.063-.429-.257-.831-.714-.897zm-46.836-6.544c-.457-.066-.879.228-.941.657-.063.43.257.832.714.898.457.067.878-.227.941-.657.063-.429-.257-.831-.714-.898zm-3.824.481c-.457-.066-.878.228-.941.657-.062.43.257.832.714.898.457.067.879-.228.941-.657.063-.429-.257-.831-.714-.898zm48.054 9.087c-.458-.067-.879.228-.942.657-.062.429.257.831.715.898.457.066.878-.228.941-.657.062-.43-.257-.832-.714-.898zm-3.571.191c-.457-.066-.879.228-.941.657-.063.43.257.831.714.898.457.066.878-.228.941-.657.063-.429-.257-.831-.714-.898zm-32.201-3.552c.005 0 .01.005.013.008.079.107.263.856-.045 1.179-.123-.077-.642-.684-.464-.838.082-.071.419-.361.496-.349zm-18.958-1.512s.795.155.96.253c-.028.192-.282.584-.567 1.022-1.423 2.192-1.973 4.801-1.246 7.499 1.218 3.695 4.89 12.551 4.42 13.244l-10.748-1.521.271-1.528c3.034.328 3.762-1.337 3.218-2.879-.377-1.069-1.756-1.849-3.169-1.523-2.04.472-2.29 1.351-3.182 2.64l-.254-.412c.686-.639.981-1.306 1.049-2.106.067-.785.011-.573.363-.958 1.928-1.452 1.15-3.821 1.15-3.821-.002-1.386 6.493-9.279 7.735-9.91zm-24.596-3.35c2.721 2.728 4.242 10.803 4.065 10.898-.126-.128-2.822 2.113-.674 4.879 0 0-.364 1.422.008 2.234-1.417 1.99-1.636 2.125-1.987 3.878-.02-.01-.189-.049-1.213-.202-5.058-.759-6.177 5.253-1.167 6.32.685.146.945.034 1.306.482.351.555.659 1.106 1.419.955.172.026.428.218.681.513.396.689 1.037 1.232 2.069 1.209.352.084.703.234 1.07.421.395.392 1.128.753 1.766.594.19-.048.537-.022.8.139.686.419 1.459.331 1.762.175.727-.232.8.32.696.804-.509 1.069.098 2.229 1.191 2.808 2.327 1.059 3.758-.167 4.687-2.876.219-.592.439-1.301.439-1.301l8.108 1.383-13.542 11.021-19.922-2.663 6.032-42.04c.881.078 1.531.242 2.406.369zm72.837 12.909c1.405.753 1.38 1.755-.035 1.112-2.299-1.043-5.083-.041-5.91 1.85-.153.349-.299.608-.37.669-.392.332-.325-.013-.065-1.092.504-2.094 2.325-3.398 4.418-3.158.682.1 1.398.34 1.962.619zm-.956 1.393c.621.091 1.253.357 1.686.829.472.655.251 1.011-.173.929-1.896-1.081-4.592-.498-5.942 1.741-.828 1.374-.824.573-.387-.52.803-1.977 2.686-3.251 4.816-2.979zm-14.067-1.468c-.877-.125-1.734-.083-2.214.232-.91.598-.241.707 1.288.443.743-.128 2.094.177 2.926.587.697.345.94.482.931.262.055-.649-1.468-1.317-2.931-1.524zm16.044 4.777c.254.849-.191 2.216-1.504 2.17-1.548-.055-1.985-2.569.736-1.744-.22-1.013-1.507-.929-2.158-.775-1.332.333-2.357 1.368-3.437 3.385-.321.598-.536.904-.614.828-.13-.127-.056-1.118.452-2.251.917-2.042 2.581-3.115 4.15-2.928 1.034.001 2.154.579 2.375 1.315zm-21.669-4.095c-.139.009.033.491.302 1.239.149.415.216.933.202 1.031-.057.377.238.515.726.339.565-.204.679-.403 1.375.015.647.446 1.304.763 1.992.507.373-.139.601-.098 1.245.165.77.313.871.359 1.501.211.805-.188 1.679.149 1.842.378.155.218.087-.063.633-.904.253-.39.602-.857.547-1.011-.074-.207-.798-.095-1.581-.019-.422.041-.808-.045-1.56-.366-1.588-.678-2.646-.703-3.748-.393-.615.174-2.012-.393-3.393-1.164-.034-.019-.063-.03-.083-.028zm2.642 4.625a1.965 1.965 0 00-1.88.783c-.482.787-.092 2.391.819 2.657.811.236.849-.244.451-.433-.602-.286-1.221-1.243-.633-1.91.404-.459 1.401-.311 2.003.415 1.213 1.462 2.801 1.778 3.264.729.156-.423-.113-1.056-.683-.977-.44.061-1.422-.044-2.163-.684-.384-.332-.788-.517-1.178-.58zm14.168 6.143c3.595.318 1.393 4.67-.493 3.196-.674-.526-.123-2.02 1.827-1.708-1.712-1.68-3.268-.163-3.079 1.821-.521.563-.815 1.737-1.195 2.37-.547.707-.593-1.359.13-3.244.699-1.824 1.537-2.547 2.81-2.435zm-20.193-2.774c-.737-.099-.089.755.013.86 1.982 1.961 2.919 3.131 1.212 2.331-2.808-1.07-3.669-.408-6.013.186-.432.124-.531-.007-1-.214-1.863-.822-1.888.343-.009 1.671 2.836 2.004 5.315 2.724 7.867 1.902 1.64-.528 1.646-.025.102.598-2.631.98-5.166.405-8.767-2.47-1.163-.929-1.414-.458-.227.514 2.727 2.119 6.507 4.231 10.139 2.217.722-.444.891-.704 1.352-.4 1.217.803.944-.327.2-1.461-.263-.401-.454-.722-.398-.962.201-.862-.313-.933-.785-.98-.564-.055-.476-.223-1.06-1.032-.852-1.181-1.915-2.468-2.626-2.76zm-30.352.323c-1.247-.087-1.538-.076-1.584 2.343-.008.455.008 1.824-.006 2.335-.177 6.327-1.171 8.993-3.128 9.486-.703.178-1.342-.017-1.802-.271-1.104-.609-1.39-2.011-.31-3.474a9.362 9.362 0 00.829-1.379c.166-.365.537-1.166.822-1.78.692-1.491 1.291-3.828 1.348-6.135.039-1.566.098-1.689.659-2.668 1.12-1.404 1.814-2.105 3.704-1.85 2.081.515 2.234 3.602-.532 3.393zm45.395 6.462l-.581-.058c-.378-2.276-1.934-1.783-2.398-.292l-.49-.076c.509-2.891 4.26-1.542 3.469.426zm-54.001-9.511c3.888.94 4.472 1.964 4.129 6.481-.287 2.168-.63 3.453-1.056 3.894-.629.18-1.121-.4-2.036-.021-.501.198-.417.239-.574-.079-.148-.298.238-1.408.674-2.276.415-.827-.005-1.405-1.147-2.71-.31-.353-.558-.817-.787-1.462-.429-1.81-.884-1.107-.534.451.187.676.206.999-.603.602-.476-.235-.941-.107-1.354.03-1.12.101-1.971-.59-.984-.787.601-.12 1.668-.265 1.984-.218.23.034.348.002.363-.099.065-.428-2.029-.685-3.695-.402-2.078.561-2.168.394-1.796-.894.944-3.267 4.307-3.194 7.416-2.51zm38.506 5.897c1.014.104 1.78 1.324 1.463 2.219l-.476-.099c.028-1.766-1.707-2.094-2.455-.221l-.695-.084c.659-1.435 1.469-1.886 2.163-1.815zm11.713 1.739c.366.28.002.84-.44.898-.165.015-.624-.391-.473-.576.264-.21.63-.288.913-.322zm4.475.951c.278.041.617.225.615.583-.059.515-.459.349-.59.283-.24-.28-.259-.88-.025-.866zm-13.878-1.599c.727.189.867 1.1.022 1.034-.385.018-.275-.857-.022-1.034zm-4.51-.558c.088.013-.153.709-.353.787-.395.156-.828-.139-.78-.353.117-.51.794-.487 1.133-.434zm12.64 3.613c1.334.706 3.093 1.458 4.897 1.143.66-.131 1.202-.323 1.164-.072-.04.262-.595.587-1.53.693-1.925.218-3.239-.165-4.381-1.248-.323-.307-.414-.558-.15-.516zm-.69.662c2.1 1.584 4.143 2.008 6.131 1.365.787-.135.779.093.71.545-3.745 2.273-7.505-1.199-6.841-1.91zm-56.318-6.243c-.722.99-1.412 3.587-2.451 4.236-6.258-1.258-1.059-8.482 2.451-4.236zm39.217 4.809c-.382.124-.19 1.01.339 1.319 4.539 2.652 6.98 3.243 9.854 2.745 1.191-.206 1.94-.989 2.058-1.405.141-.495-.586-.65-1.95-.303-4.122.872-6.412-.608-9.408-2.184-.277-.146-.57-.225-.893-.172zm-18.482-2.626l-.982 6.603-4.583-.744.197-.97 3.425.596.635-4.726-3.985-.615.122-.877 5.171.733zm1.065.171l4.583.672.131.707-4.813-.7.099-.679zm-18.801-.592c-.338.21-.872.189-1.059-.047-.418-.531.196-1.306.971-1.187.774.118.737.831.088 1.234zm2.269-.767c.693.104.833.744.234 1.158-.401.254-.587.247-.876-.023-.356-.394-.021-1.209.642-1.135zm-4.547-.494c.183.02.34.06.433.247.303.872-1.162 1.231-1.362.586-.142-.52.46-.885.929-.833zm25.909 3.858l.142.889-5.286-.746.124-.851 5.02.708zm-18.947-2.506c.775.203.545.93.131 1.208-.708.455-1.292.189-1.024-.521.167-.445.532-.73.893-.687zm-4.604 1.819c-.414.89-.095 2.858-.301 3.029-.448.373-1.036.063-1.289-.124-.87-.714-.438-4.099.515-4.166.553.366 1.025-.077 1.307-.11.282-.034.033.4-.232 1.371zm14.167.644c.52.076.884.534.813 1.022-.071.489-.551.824-1.072.748-.52-.075-.884-.533-.813-1.022.072-.489.551-.824 1.072-.748zm4.162.722l5.404.786c.262.47.187.751.053 1.031l-5.605-.808.148-1.009zm-15.889-2.193c.247.033.298.547.05 1.09-.447.98-.634 2.375-.518 3.008.076.437.17.743.072.85-.34.374-1.155-.034-1.439-.634-.661-1.675-.099-4.54.929-4.162.371.246.642-.015.906-.152zm-4.821-.303c-.318.353-.453 2.577-.505 2.755-.067.224-.718.008-1.068-.204-.858-.538-.459-1.528-.159-2.33.295-.622.743-.607 1.296-.587.306.012.698.094.436.366zm7.334 1.189c.293.033.305.241.119 1.045-.145.629-.249 1.168-.227 1.784.049 1.311.028 1.661-.35 1.861-.449.238-.982.069-1.354-.343-.773-.771-.368-3.947.354-4.122.611.241 1.079-.172 1.458-.225zm18.525 3.673l-.923.889-4.607-.67.149-.999 5.381.78zm-16.625-1.048c.718.112.425 1.289-.072 1.982-.394.406-.641.417-1.071-.08-.489-.564.401-2.013 1.143-1.902zm15.036 2.527l-.73.465-3.378-.489.081-.555 4.027.579z" fill="#131F67"/><path d="M211.722 173.388l-4.998-4.94c6.681.832 13.319 1.945 19.963 3.02l-7.302 3.485c-1.157-1.596-1.687-3.59-3.488-4.777-1.52.348-2.785 2.13-4.175 3.212zm49.334 5.707c-.111-.034-.201-.056-.263-.105-.14-.113-.209-.329-.225-1.008-.599-7.524-8.845-8.197-8.822-7.975-.02-.296 11.463-7.476 18.462-13.401 1.056 5.46 4.826 18.13 4.603 18.054 0 0-1.594-.219-5.708-.916-3.99 1.047-6.83 2.218-7.035 4.483-.137.788-.388 1.087-.659.979a7.36 7.36 0 00-.353-.111zm21.771-20.773c5.327.695 6.686-1.598 7.334-1.804 3.57-.032 5.416 2.416 6.612 4.923 1.793 1.389 1.698.333 2.354-1.329l5.06-.632-.218 1.455c-1.613.541-4.126 2.164-4.126 2.164l-1.469-.298-1.004.94c-3.63 1.225-7.243 2.79-11.001 3.598 0 0-3.512-5.806-3.542-9.017zm-66.294-9.174l4.15-28.801c2.22.175 6.265.782 6.265.782 2.102-2.56 4.603-3.543 7.22-4.827a90.737 90.737 0 01-1.147 10.546c-7.354 6.305-12.151 14.685-10.207 28.535l-2.295-.582-3.986-5.653zm34.572 6.675c2.671-5.744 4.954-11.635 6.45-17.843l12.017 1.577-.324 3.892-18.143 12.374zm42.75-7.172l1.35-10.805c10.186-8.549 11.955-17.039 10.29-28.339 2.8 1.045 3.979 3.378 6.307 6.697l-4.1 28.091c-1.954-.01-6.737-.438-6.737-.438-.336 1.295-4.806 3.859-7.11 4.794zm-34.58-22.368l.16-4.827 17.625-11.715c-2.171 5.871-4.635 11.866-6.031 18.248l-11.754-1.706zm-23.687-18.597c-1.212.524-4.728-4.074-5.006-6.862 1.219-1.155 10.847-3.995 10.847-3.995s4.345 7.124 3.742 9.744c-2.427.244-4.483.115-6.523 1.65-1.029-.063-1.229-1.189-3.06-.537zm-6.331-6.41c1.227.373.19 1.846-.173 2.983l-6.9.882c2.546-1.496 4.39-2.815 7.073-3.865zM252.9 90.361c1.368.16 2.712.894 3.821.649.414-.087 1.232-.195 2.07.083 1.898.864 2.893-1.086 4.157-.911 1.635.242 2.699-.701 3.024-2.851.14-.93.238-1.023.438-1.088a.866.866 0 011.137.8c.594 4.134 3.034 8.128 7.745 8.523-4.238 3.02-17.145 12.317-17.145 12.317-1.187-6.126-3.1-11.946-5.247-17.522zm48.612 3.581l7.49-3.653 3.397 5.254 4.174-3.924c1.869 1.695 6.126 5.488 6.126 5.488s-14.157-1.859-21.187-3.165z" fill="#D40000"/><path d="M311.526 52.405l-62.682-8.73 9.941 17.038c13.291-.592 24.312 2.651 35.713 6.266l17.028-14.574zm-1.715.541l-4.878 4.258c-1.01-1.147-3.636-1.168-3.585 1.028-2.967-2.024-4.269 2.16-1.532 2.379-.463.791-3.233.615-3.783-1.023-3.028 1.07-3.677-.49-4.285-1.53 3.24 2.797 5.662-1.633 1.768-2.469 1.974-2.711-3.343-4.845-3.576-.977-3.522-1.302-3.39 3.623-.577 3.027-2.091 2.197-4.696.138-5.202-.423-1.613.818-4.384.449-4.918-1.311 3.934 1.352 4.222-3.716.461-3.086 2.477-3.564-3.97-3.974-2.882-.6-3.605-.657-3.416 3.657-.128 3.406-3.195 2.092-4.972-.549-5.412-.664-1.928 1.492-4.73.113-4.985-.971 2.729 1.49 4.34-2.925.663-3.18 1.36-2.798-3.822-3.915-3.153-.416-2.794-1.032-3.585 3.282-.256 3.077.027 1.217-2.681 1.985-4.076.609-1.233.423-2.623 1.158-3.917-.417 2.324-.013 3.224-3.568-.56-3.322.498-2.19-.838-2.508-2.593-2.188l-2.183-3.801 59.589 8.594zm-43.997-.841c-.26.384-.637.616-.604.942.027.268.256.667.579 1.21 2.573 4.291 8.945 5.086 11.433 1.41.497-.679.442-.857.064-1.55a.916.916 0 01.985-1.38c1.02.252 1.076 1.125.49 1.656-1.268 1.121 1.279 4.446 4.178 5.332 3.716 1.135 7.687-.852 7.514-3.175-.01-.133-.062-.264-.072-.402-.129-1.943 2.92-.578 1.6.456-.494.371-.745.467-.757.953.342 4.121 5.442 5.29 8.079 4.418-3.881 4.397-8.358-.078-8.746-3.602-5.336 5.391-10.503 3.359-12.709-2.383.304.383-7.264 8.66-12.955-1.783-4.099 7.143-8.805 1.227-8.387.97 2.315 1.676 6.935 1.863 7.966-2.127.133-.491-.267-.58-.443-1.01-.892-2.176 2.933-1.634 1.785.065zm-11.849-1.214c.56.132.623.367.449.895l-.449-.895zm48.39 8.492l-.962.848c-.126-.502-.068-.937.962-.849zM311.236 61c-1.959-.206-3.833 2.104-4.227 5.49-.191 1.642-.484 5.79-.454 6.418.041.877-.308 2.008-.646 2.083-.89.2-1.238.36-1.521.706-.735.897-.408 2.077.767 2.756.839.484 2.039.158 2.96-.801.511-.533.649-.783 1.242-2.224.273-.663.424-1.807.38-2.884-.101-2.447.665-5.365 1.741-6.632 1.928-2.271 2.138-3.912.598-4.663a2.508 2.508 0 00-.84-.249zm-.157.366c2.266.338 1.895 2.453.543 2.924-.518.134-1.12.095-1.663-.358-.616-.46-.585-.033.039.54.733.673 1.084.69.457 1.926-.585 1.152-1.181 3.74-1.175 5.26.015 4.159-.797 6.113-2.724 6.554-.949.218-1.848-.414-1.999-1.128-.235-1.119.593-1.929 2.272-1.424 0 0 .171-.32.241-3.918.097-5.005.842-8.4 1.978-9.46.607-.565 1.35-1.017 2.031-.916zm14.64 7.304a3.685 3.685 0 00-1.748.203s-.385 2.2-.503 2.525c-.658 1.814-.578 2.052.311 2.453 2.156.97 4.209-.163 4.448-2.373.134-1.243-.917-2.59-2.508-2.808zm.261.34c1.235.143 2.154 1.656 1.848 2.912-.288 1.514-1.96 2.119-3.312 1.65-.402-.118-.817-.253-.907-.563-.22-.444.25-.525 1.184-.385 1.023.154 1.232.05 1.651-.44.829-.97.165-2.448-.97-2.354-.388.032-.466.183-.043.363 1.263.766.646 1.488.132 1.743-.612.303-1.454-.357-1.565-.697l.396-2.049s.502-.327 1.586-.18zm-15.266 7.539s-.546.155-.824.334c-.613.392-.832 1.09-.668 1.83.073.328.046.378-.441.824-1.388 1.27-1.645 1.969-1.232 3.356.188.63.19.63-.183 1.373-1.6 3.186-4.345 6.662-7.068 8.95a2.776 2.776 0 00-.627.747s.552.054.876-.044c2.582-.778 5.455-2.595 8.038-3.685-4.171 2.314-8.544 4.292-8.544 4.292l5.07 1c-1.463 1.048-26.461 15.616-25.183 48.45 7.23-.616 10.879-2.852 15.063-5.443-.341 2.581-1.294 9.523-1.27 9.526.087-.104-3.065-1.64-2.652 1.031.263 1.47-.019 5.053-1.14 6.936-.048.08.324.271.274.345-.058.084-.544.015-.544.015-1.594 2.039-4.935 2.051-6.536 1.749-.587-.139-.459.661-.421.949.133 1.189 1.179 3.845 3.228 8.165l.677.186-.449.288c.231.575.914 1.692.914 1.692l-.013.344s1.164 2.091 1.807 3.087c.044.068.186-.057.23.01.358.546.793 1.163 1.158 1.709.028.042-.093.165-.064.205.698.96 2.063 2.892 2.063 2.892l.331-.026 1.072 1.527c11.178-2.964 23.625-11.307 23.507-11.302l3.215-21.384-12.452-1.846 4.086-28.353 10.757 13.366.403-3.328c-2.455-2.931-12.229-15.332-12.229-15.332a14.866 14.866 0 005.021-.812c2.501 1.791 5.272 3.052 8.647 3.12l.446-3.146c-3.763-.554-5.926-2.065-7.407-3.724l-2.314-.411c-4.74 2.442-7.568.577-10.745-.5l-1.811-3.381 23.132 3.251.916-7.433-3.52-.437-2.049-1.915 2.491 1.435s.018-.414-.398-1.267c-1.105-2.394-2.443-5.875-3.117-8.839-.317-1.502-.324-1.443.24-2.214.776-1.059.847-2.468.16-3.366-.483-.633-.448-.748-.203-1.131.987-1.517-.736-2.378-.758-2.275-4.076.839-9.059-1.36-8.96-1.39zm8.92 1.9c.774.106.811.437.73.977-.211.982-1.637 1.141-2.278 1.189-3.064.207-8.187-.924-8.333-2.275-.108-.992.604-1.43 2.644-.649 3.29 1.177 5.495.746 7.237.758zm-9.99 1.366c.309.043.635.391.671.888.03.424-.602 1.569-1.024 1.792-1.045.553-1.74-.644-.939-1.72.462-.622.896-1.015 1.292-.96zm10.114 1.61c.141.024.389.088.537.22.675.606.494 2.336-.242 2.483-.749.15-1.309-.644-1.143-1.738.101-.67.426-1.037.848-.965zm-2.427.01c.154.015.311.069.466.165.584.36.623 2.208-.079 2.694-.545.377-1.572.202-1.737-.768-.198-1.16.523-2.172 1.35-2.091zm-5.273-.715c.911.138.84 2.075-.168 2.73-.843.548-1.889-.264-1.341-1.514.274-.625.787-1.274 1.509-1.216zm2.55.682c1.304.408.742 3.464-.962 2.903-.901-.798-.541-3.075.962-2.903zm-6.321 2.44l1.864.44s-3.17 4.613-5.681 6.186c-.952.674-1.439.638-.68-.118 1.638-1.422 4.497-6.507 4.497-6.507zm11.314 1.679c.7 2.922 1.422 5.89 2.515 8.932-1.985-2.403-3.546-5.881-4.978-9.142l2.463.21zm-8.916-1.025l1.248.195c.155 1.849.709 3.094 1.412 4.197.902-1.056 1.552-2.266 2.2-3.562l.995.132c.349.268-1.987 5.434-3.599 5.87-1.428-1.46-2.298-4.969-2.256-6.832zm-.713 1.2c-.124.113 1.248 5.028 2.762 6.761 1.849-1.25 3.176-3.057 4.216-5.29l4.334 7.856-4.741-4.124c-1.284 1.478-2.62 2.872-4.141 3.973-1.223-1.668-2.213-3.58-3.276-5.415-2.224 1.112-3.86 2.407-6.672 3.336.003.057 5.894-4.444 7.518-7.098zm-1.238 4.955l3.04 4.722-9.703-1.543 6.663-3.18zm7.898 1.216l5.555 4.859-9.153-1.24 3.598-3.618zm-49.159-5.156s.014.26.052.42c.48 4.33 2.977 8.234 7.555 8.48l-16.889 11.784s-1.311-8.173-5.11-16.908c0 0 .882.307 1.571.54.649.19 1.158.234 1.673.184.388.003.713-.189 1.062-.208.589-.03 1.28.268 1.642.45.994.329 1.767-.107 3.2-.98.381-.234.501-.146.929-.083 1.6.237 2.81-.905 2.922-2.932l.049-.9-.349.97c-.657 1.829-1.042 2.602-3.04 2.393-.484-.05-.709.227-1.559.73-1.19.703-1.952.668-2.657.222-.72-.454-.821-.263-1.595-.044-.886.252-2.09.032-3.139-.42-1.464-.632-1.298-.468-1.298-.468 6.671 16.039 7.705 30.642 5.674 43.185-2.894 17.872-11.677 31.359-18.802 39.224 0 0 1.018.05 1.93.057.448-.05.764.107 1.169.309.379.189.68.227 1.076.241.309.011 1.047.158 1.517.292 1.064.304 1.156.181 2.496-.726 3.804-2.574 3.569-2.492 5.99-2.065 3.633.642 6.22 3.327 6.901 7.17.086.486.192 1.165.22 1.169l-.096-1.005c-.35-5.07-4.562-7.519-8.308-7.997l17.936-12.556c-.082.003 2.005 11.83 4.524 17.333 0 .035-.928-.545-2.775-.588-1.003-.023-2.089-.306-2.694-.496-.795-.134-1.312.016-2.418.64-.461.272-.885.581-1.739.784-2.029.482-2.908 1.157-3.206 3.13-.055.359-.18.81-.2.989-.005.047-.022.131-.009.133.032.005.088-.063.133-.109.115-.117.361-.447.63-1.252.481-1.439.888-1.907 2.472-2.345.476-.132 1.495-.53 1.958-.782 1.523-.828 2.014-.997 3.093-.591.614.231 1.142.381 2.007.408 1.028.032 1.094-.008 2.138.411.708.284 1.592.589 1.592.589-11.073-31.048-6.666-57.698 12.376-82.616 0 0-4.472-.6-4.678-.519-.078.031-.614-.093-1.19-.28-1.185-.382-.939-.205-4.203 2.085-4.034 2.832-9.315-.663-10.202-6.529a2.47 2.47 0 00-.202-.722 1.537 1.537 0 00-.129-.2zm13.966 5.398c.647.16 1.112.395.946.96l-23.875 16.298-.145-1.295 23.074-15.963zm4.421.763c-.329.443-1.12.942-1.494 1.35l.949 1.506-.792.987-1.557-1.646-3.805 2.619 2.364 3.351-3.011 2.122-.745-1.065 1.599-1.17-1.893-2.226-4.338 2.937 2.684 3.429-2.588 1.727-.793-.945 1.38-1.069-1.745-2.27-4.062 2.896 2.39 3.358-2.475 1.714-.832-1.061 1.197-.872-1.727-2.277-4.123 2.836 2.508 3.429-2.431 1.504-.653-.87 1.202-.904-1.689-2.277-2.534 1.592-.182-1.372 25.324-17.554 1.872.22zm1.239.494l-1.198 1.634-.617-.854 1.079-.776.736-.004zm-52.584-7.53c-.597.048-14.881 5.062-23.548 11.585l-.439 2.836-.33.299-.506 4.414.154.262-.197 1.802-.37.429-.722 4.921.393.122-.815 6.031 12.405 1.836-4.215 28.77s-6.188-8.583-10.788-13.788l-.471 3.367 11.916 15.49c-.973-.012-2.247.024-4.262.722-4.119-3.298-9.444-3.246-9.444-3.246l-.48 3.43c3.355.181 6.281 1.041 9.439 3.747 3.132-1.407 6.746-2.014 11.682.183.886 1.849 1.765 3.752 2.733 5.047l-24.606-3.403-.983 6.943c1.088.179 3.817.555 3.817.555 1.011 2.746 3.222 6.614 3.712 11.148-1.804 1.522-1.886 2.946-.636 4.925-.129.792-.512 1.632.309 2.654 3.337-.981 6.775.17 9.295 1.285.855.378 1.33-.526 1.474-1.73.021-.697.068-.991.696-1.366 1.497-.895.993-3.253.791-3.333.209-1.973 8.337-10.827 8.315-10.645l-1.4.259-5.725-.808c17.041-11.442 25.602-26.076 26.849-43.824.352-4.467-.085-6.6-.085-6.6-5.624 1.442-10.216 2.417-15.07 6.058l1.056-9.191c.172.468 1.685 1.096 2.469.644.525-.226.619-.535.336-1.71-.411-1.707-.059-5.186.595-6.291.076-.129.177-.487.27-.839.126-.473.017-.517-.031-.516.127-.01.63.163.7.121 2.026-1.231 4.102-1.883 6.496-1.634l.22-1.083c-1.153-4.442-2.408-6.3-3.664-8.873 0 0-.433-.207-.728-.194l.422-.311c-1.755-3.668-4.501-7.174-7.013-10.488.01-.009.003-.013-.016-.012zm-.181.554l1.39 1.611c-8.093 2.324-16.318 6.257-24.689 11.996l.467-2.489c9.413-6.152 16.22-8.775 22.832-11.118zm48.395 9.594l.825 1.034-1.535 1.25.741.951-.641 1.031-1.888-2.468 2.498-1.798zm-47.416-6.778c.5.072.85.512.781.981-.068.47-.529.792-1.029.72-.5-.074-.85-.513-.781-.983.068-.47.529-.791 1.029-.718zm64.799 10.621c13.114 18.431 1.733 40.79-19.751 43.435l-.036-1.363c21.807-3.564 29.918-24.914 18.418-40.751l1.369-1.32zm-62.304-8.95l.83 1.216c-9.401 2.673-18.874 7.353-28.443 14.7l.234-2.173c8.94-6.578 18.108-10.944 27.379-13.743zm-5.74-.497c.5.072.85.512.781.982-.068.47-.529.791-1.029.718-.5-.072-.85-.512-.781-.982.068-.47.529-.791 1.029-.718zm-2.99 1.198c.5.073.85.512.781.982-.068.47-.529.791-1.029.719-.5-.073-.85-.513-.781-.982.068-.47.529-.792 1.029-.72zm9.096 1.893c.5.073.85.512.782.982-.069.47-.53.791-1.03.719-.5-.073-.85-.513-.781-.982.069-.47.529-.792 1.029-.719zm39.23 6.304l.774 1.03-1.633 1.143 1.751 2.302 2.225-1.491-1.372 2.503-19.708 13.75-.113-1.76 1.553-1.089-1.804-2.265-.178-1.361 2.322-1.509.74.956-1.393 1.129 1.674 2.071 3.96-2.528-2.465-3.414 2.713-1.828.717.878-1.307.941 1.717 2.346 4.082-2.721-2.533-3.372 2.703-1.859.784.94-1.397 1.178 1.779 2.16 4.012-2.763-2.486-3.291 2.883-2.076zm-51.279-6.873c.5.072.85.512.781.981-.068.47-.529.792-1.029.72-.5-.074-.85-.513-.781-.983.068-.47.529-.791 1.029-.718zm14.251 2.24l.532 1.176c-11.232 3.457-19.226 7.393-31.652 17.301l.211-1.443c9.697-8.364 19.227-13.28 30.909-17.034zm-5.295-.64c.5.073.85.512.781.982-.068.47-.529.791-1.029.719-.5-.073-.85-.513-.781-.982.068-.47.529-.792 1.029-.719zm81.228 12.146c1.627 1.818 5.293 3.928 7.825 4.128l-.205 1.873c-4.431-.246-7.867-3.432-7.867-3.432-3.651 1.439-7.116 1.184-10.569-.173l-.971-2.966c4.965 3.079 10.259 1.599 11.787.57zm-21.006-2.54c.145.365.741.85.741.85 4.227-.404 4.921 3.731 2.688 5.712l.302 1.735c.71.23 1.314.563 1.783.975a3.14 3.14 0 01.986 3.147c-.048 1.294-2.249 2.184-2.346 2.08l-.293 1.817c.505.529 1.13 1.061 1.475 1.757.751 1.679.138 3.172-1.509 3.928-.978.438-1.96.371-1.99.307l-1.244 1.931c.765.561.888 1.343.94 1.897.113 1.2-.974 2.584-2.143 2.983-1.476.504-3.256-.393-3.254-.392l-1.521 1.062c.185 1.139.185 1.802-.091 2.414-.681 1.515-2.535 1.878-3.935 1.553-1.099-.255-1.824-1.14-1.824-1.14l-1.561.317c.042.007-.235 1.767-1.062 2.198-.269.195-1.179.581-1.179.581l-.018-1.244c.646-.312 1.151-1.222 1.136-1.944l3.417-1.007c-.016.109.744 1.035 1.327 1.237 1.195.414 2.611-.301 2.769-1.36.092-.619-.227-1.095-.262-1.61l3.105-2.248c1.072.527 1.853.704 2.397.504 1.025-.376 1.437-1.403 1.347-2.069-.106-.787-.753-1.381-.791-1.459l2.043-3.381c.707.099 1.16.059 1.76-.198 1.226-.53 1.278-1.898.892-2.608-.47-.863-1.295-1.131-1.364-1.122l.657-3.724c-.004.03 1.635-.47 1.922-1.28.423-1.193-.015-2.054-1.571-2.635-.863-.323-.84-.155-.84-.155l-.775-3.57c2.181-.86 1.811-2.786.88-3.55-.981-.805-2.587-.425-2.587-.425s-.598-.745-1.046-1.341l.639-.523zm-53.964-7.147c1.078 1.863 2.829 5.535 3.643 8.711.036.139-.089.797-.089.797-3.613-.227-5.032.909-6.436 1.65-.915-.618-1.248-1.234-3.181-.446-.013.048-4.161-3.235-4.508-6.923 3.513-1.404 6.861-2.74 10.571-3.79zm-18.133-2.614c.5.072.85.512.781.982-.068.47-.529.791-1.029.718-.5-.072-.85-.512-.781-.982.068-.47.529-.791 1.029-.718zm8.559 1.416c.5.073.85.512.781.982-.069.47-.529.791-1.029.719-.5-.073-.85-.513-.782-.982.069-.47.53-.792 1.03-.72zm61.798 10.053c1.279 2.156 3.098 6.146 3.186 9.458.123 4.658-1.097 9.349-3.802 12.359-5.065 6.535-12.266 7.036-12.306 7.284l.142-1.47c.018.338 5.591-.981 9.865-5.166 2.68-2.868 4.603-7.243 4.694-10.862.483-5.165-2.7-10.456-2.73-10.478l.951-1.125zm-73.459-9.973c.5.073.85.512.781.982-.069.47-.53.791-1.029.719-.5-.073-.85-.513-.782-.983.069-.47.53-.79 1.03-.718zm8.571 1.26c.5.072.85.512.781.981-.068.47-.529.792-1.029.719-.5-.073-.85-.512-.781-.982.068-.47.529-.791 1.029-.719zm77.084 12.673c1.979.497 3.936 4.275 5.887 6.553l-4.049 27.893-6.697-.844c-1.156 1.835-3.457 3.481-6.95 4.928l1.523-10.452c12.569-9.433 11.35-21.936 10.286-28.078zM217.387 97.25c.5.073.85.513.781.982-.068.47-.529.792-1.029.719-.5-.073-.85-.512-.781-.982.068-.47.529-.791 1.029-.719zm8.23 1.353c.5.072.85.512.781.982-.068.469-.529.791-1.029.718-.5-.072-.85-.512-.781-.982.068-.47.529-.791 1.029-.718zm84.772 12.395l11.765 14.915-.324 1.891-13.242-16.922 1.801.116zm-79.953-10.385l.124 1.677c-.346-.716-.327-.959-1.076-1.184l.952-.493zm-7.46-.602c.5.072.85.512.781.981-.068.47-.529.792-1.029.719-.5-.073-.85-.512-.781-.982.068-.469.529-.791 1.029-.718zm-8.213-.952c.5.073.85.513.782.982-.069.47-.53.792-1.03.719-.5-.073-.85-.512-.781-.982.069-.47.529-.791 1.029-.719zm76.817 11.171l2.434 2.185-1.351 3.105-2.419-2.73 1.336-2.56zm-62.33-8.795l.441.336-.881 2.131-6.512 1.201c2.229-1.31 4.535-2.756 6.952-3.668zm.867 1.176c.201 1.703.804 4.266 1.678 6.489-.853.271-3.939 1.376-4.035 2.085.217 1.341 3.07 2.958 3.07 2.958a31.758 31.758 0 00-4.029 5.716c-.396-.902.02-4.17 1.332-5.363-1.039-.567-2.406-1.714-3.408-2.842 1.094-2.34 4.447-3.346 4.587-3.344-.073.115-.18-5.248.805-5.699zm-10.134-1.053c.5.073.85.513.782.982-.069.47-.53.792-1.03.719-.5-.073-.85-.512-.781-.982.069-.47.529-.791 1.029-.719zm69.102 10.12c2.999 7.635-.291 13.409-7.357 16.862l.391-1.641c4.874-2.376 8.614-7.906 6.205-14.048l.761-1.173zm-76.789-10.959c.5.073.85.512.781.982-.068.47-.529.791-1.029.719-.5-.073-.85-.513-.781-.982.068-.47.529-.792 1.029-.719zm64.427 9.414c-4.468 9.92-5.087 14.674-5.84 17.43l-11.488-1.577.099-3.796 17.229-12.057zm-45.883-6.38s2.172 2.532 4.129 4.751l-.34.456-2.211-.043c-1.213-3.315-1.578-5.164-1.578-5.164zm-2.227.836l.017.006-.087 1.562c-.742-.135-9.274 1.858-16.211 6.012 1.147-1.395 2.919-2.634 4.609-3.665 3.637-2.49 11.672-3.915 11.672-3.915zm-11.522-1.316c.5.073.849.512.781.982-.069.47-.53.791-1.03.719-.5-.073-.849-.513-.781-.982.069-.47.53-.792 1.03-.719zm4.939 1.707l.394.511-2.293.729 1.899-1.24zm14.864 2.624c.029.004.06.009.09.017.326.087.442.255.61.432a5.126 5.126 0 00-1.207-.286.697.697 0 01.507-.163zm-8.242-.871l.028 1.18c-5.005 1.805-10.871 3.345-19.95 9.313l.347-2.374c5.685-3.656 12.105-6.481 19.575-8.119zm6.23 1.016c.28.109.537.15.809.128 0 0-.214.288-.415.267-.212-.023-.394-.395-.394-.395zm1.96.353c.588.051.914.611.702 1.24-.768 2.124-1.075 4.343-.819 5.963.199 1.262.232 1.7-.109 1.857-2.996 1.375-3.33-6.837-.713-8.772.35-.228.671-.311.939-.288zm-22.393-2.971c.5.073.85.513.781.982-.068.47-.529.792-1.029.719-.5-.073-.85-.513-.781-.982.069-.47.529-.792 1.029-.719zm78.633 11.636l1.311 2.928-2.736 2.149-1.019-3.106 2.444-1.971zm-58.799-7.063l-.224.913c-1.273.17-2.411.51-3.435 1.108-.198.117 2.625 1.83 2.984 1.581l-.15.986c-.09.318-4.809-1.872-4.982-3.019.666-.649 4.036-1.894 5.807-1.569zm-22.528-2.774c.5.072.849.512.781.982-.069.469-.53.791-1.03.718-.5-.072-.849-.512-.781-.982.069-.469.53-.791 1.03-.718zm13.316 2.933c-.442.574-1.082 1.329-1.314 2.222-3.667 1.436-7.402 2.732-12.272 6.542l-2.275-.344.032-.569c5.22-3.463 10.74-6.303 15.829-7.851zm8.681 1.536l-.146 1.168c-.789-.105-1.183-.409-1.729-.773.537-.222.962-.457 1.875-.395zm25.455 3.828l.544.717-.446.292-.098-1.009zm-34.653-2.567l1.146.915a34.965 34.965 0 00-10.58 5.58l-2.483-.361c3.602-2.736 7.397-5.109 11.917-6.134zm66.733 10.563l-.213 3.203-3.385 1.163.549-3.332 3.049-1.034zm-59.872-8.694l2.133.537.097.892c-1.975.821-3.739 1.865-5.445 2.967a17.74 17.74 0 013.215-4.396zm-5.241-.415l.87.538-.586 1.434c-2.814.722-5.146 1.911-7.704 3.598l-2.547-.371c2.559-1.92 6.68-4.207 9.967-5.199zm7.852 2.571c.007 0 .011 0 .009.004l-1.087 9.809c-10.854 8.924-11.799 18.943-10.389 28.358l-1.772-.335c-1.72-2.721-4.117-5.586-4.117-5.586l4.139-28.392 6.445.96c2.003-3.083 6.529-4.827 6.772-4.818zm-7.814.263l-.113 1.312a18.856 18.856 0 00-3.795 1.94l-2.421-.352c1.888-1.22 3.765-2.452 6.329-2.9zm21.893 3.835l.131 1.587c-22.785 4.219-29.838 25.09-19.177 41.671l-1.005.787c-12.544-16.977-2.547-40.276 20.051-44.045zm-22.038-1.637s-.054 1.194-.074 1.59l-2.432-.353c.635-.523 1.212-1.077 2.506-1.237zm61.014 9.375l-1.846 2.859-3.74-.489 2.142-2.815 3.444.445zm-23.935-1.338l3.402.494-.446 3.053-3.402-.495.446-3.052zm-14.765-1.84l-.138 1.351c-1.617.503-1.404 1.707-1.781 1.633-.961.086-3.588.949-3.588.949-.761-.866-1.959-.85-2.556-.569-.823.354-1.147 1.411-1.065 2.356l-3.014 2.475c-1.181-.686-2.409-.832-3.134-.135-.817.787-.717 1.925.24 3.324l-1.914 3.205c-.133-.228-2.597.081-2.822 1.398-.239 1.393 1.621 2.595 1.602 2.702l-.644 3.749c-.063-.194-2.115.269-2.115 2.11 0 1.695 2.436 1.842 2.466 1.988l.781 3.791c-.072-.122-1.982 1.181-1.164 2.796.682 1.346 3.296.919 3.286.837l.559 1.018-.881.669s-.277-.421-.467-.415c-1.493.05-3.071-.499-3.691-1.703-.836-1.692.699-3.923 1.073-3.849l-.596-2.205c-1.633-.269-2.819-1.844-2.725-3.005.198-2.432 2.451-3.134 2.453-3.117l.389-2.238c-.148.116-1.91-1.468-1.645-2.954.193-1.086 1.359-2.227 2.638-2.568l.949-.267 1.083-1.722s-.924-1.732-.396-3.266c.904-2.307 4.193-1.661 4.683-1.354l1.801-1.585c-.516-1.76 1.071-3.485 2.826-3.548.776-.004 2.835.778 2.835.778l2.109-.668c.114-1.016 1.384-1.504 2.563-1.961zm10.71 4.97l2.915.424-.446 3.052-2.915-.424.446-3.052zm7.766 1.129l3.286.478-.445 3.052-3.287-.478.446-3.052zm-18.839-1.959l-.208 1.163c-20.071 5.834-14.966 24.699-12.582 27.154l-.788 1.165c-3.027-2.366-8.55-24.081 13.578-29.482zm14.033 5.197l3.537.514-.428 3.143-3.537-.514.428-3.143zm-15.525-.699l-1.539 2.696-3.495-.23 1.693-2.667 3.341.201zm70.307 12.359l2.362.357c-5.13 4.213-10.384 6.83-15.357 7.957 0 0 .047-.435.241-.755.155-.255.069-.966.069-.966 5.588-1.66 9.594-3.949 12.685-6.593zm-12.123-1.72c-.709.598-1.492 1.102-2.42 1.425l-.082-1.818c.724.097 2.502.393 2.502.393zm4.167.567c.157.6-6.765 2.931-6.748 2.649l.176-1.084 3.832-1.918 2.74.353zm1.392.202l.013.002 1.813.273c-1.993 2.189-11.302 5.337-10.851 4.769l.609-1.725c2.961-.747 5.726-1.948 8.416-3.319zm3.057.445l2.385.356c-4.216 3.761-8.087 4.795-11.851 6.13-.205-.059-.1-.12-.757-.197l-1.067-1.049c.195.225 8.63-2.939 11.29-5.24zm-66.807-9.56l-.27 1.283c-5.616 3.327-8.388 8.219-6.654 14.618l-.809 1.195c-1.873-6.831-.132-12.951 7.733-17.096zm22.846 3.53l-.244 3.532-17.678 11.991c3.538-7.621 4.897-12.334 6.258-17.2l11.664 1.677zm49.822 8.084l-.276 1.94c-7.078 5.467-13.692 7.417-19.214 7.791l-.013-.763 2.689-1.073c8.466-2.107 12.445-4.89 16.814-7.895zm-18.669-2.662c-.096 1.417-1.811 3.869-3.547 5.141l-2.6-.385-.132-1.101c2.316-.779 4.529-1.967 6.279-3.655zm.724.532c.745 1.583-1.234 5.111-1.272 4.954-.152.241 7.894 3.091-1.181 5.703.02 1.158.466 3.689-.367 5.092-.109-.599-1.024-4.69-2.023-5.848 2.761-.325 4.898-1.573 4.764-2.107-.327-.778-1.389-1.831-3.297-2.767 2.029-1.974 2.779-3.568 3.376-5.027zm-60.956-8.142l-.163 2.984-3.276 1.27.239-3.267 3.2-.987zm52.256 10.393c.235.037.449.127.542.253 1.412.786.52 7.652-.939 8.152-1.071.439-1.628-.598-1.569-.759 1.114-3.057.99-5.065 1.04-7.308.076-.316.532-.401.926-.338zm26.059 3.893l-.356 2.437c-10.039 7.279-20.495 12.647-30.717 15.029l-.676-1.533c12.487-3.393 23.369-9.241 31.749-15.933zm-1.576-.003c-4.849 4.731-10.316 7.485-17.341 8.074l.092-1.529c8.726-.575 17.468-6.513 17.249-6.545zm-110.921-15.248c4.559 5.862 9.254 11.698 13.889 17.709l-2.16-.208-12.053-15.737.324-1.764zm63.082 9.432l.006 1.284-1.776 1.365 2.079 2.817.04.599-2.394 1.751-.818-1.016 1.337-1.053-1.682-2.228-4.126 2.764 2.556 3.498-2.562 1.695-.766-.996 1.343-1.088-1.722-2.289-4.223 2.931 2.385 3.325-2.159 1.675-.76-1.008 1.114-.897-1.749-2.267-4.043 2.711 2.494 3.48-2.715 1.886-.802-.979 1.541-1.175-1.915-2.291-1.995 1.311s.893-1.459 1.029-1.707c.199-.366.828-.587 5.045-3.489 5.039-3.5 10.153-6.723 15.238-10.609zm25.306 4.536c1.293.209 3.455.823 4.447 1.508 1.842 1.273 1.105 1.956-.27 2.346-1.643.466-2.957.619-4.707.414l.168-.796c1.045-.082 2.129-.162 3.091-.496.662-.23.858-.465.858-.465s-.516-.66-1.423-1.124c-.664-.34-1.662-.483-2.193-.646l.029-.741zm-58.146-7.374l1.296 2.535-2.377 2.762-1.471-2.894 2.552-2.403zm32.875 5.034c-.006.441.331 2.208.073 1.838l-.917-1.303.844-.535zm25.149 3.887c.891.203 1.837.366 2.452.762-.845.445-1.73.443-2.613.456l.161-1.218zm22.467 4.44c.545.079.926.558.851 1.07-.074.512-.576.862-1.121.783-.545-.079-.926-.558-.851-1.07.074-.511.577-.862 1.121-.783zm-51.139-5.797l.73.887-1.262 1.032 1.688 2.238 2.756-1.793.125 1.411-25.97 17.82-1.258-.27 1.692-1.403-1.423-1.831.846-1.043 1.714 1.915 4.046-2.694-2.479-3.287 2.828-2.029.825.895-1.634 1.24 1.781 2.287 4.248-2.914-2.492-3.418 2.643-1.754.747.889-1.246.924 1.83 2.398 3.605-2.625-2.437-3.387 2.891-1.961.676.85-1.356 1.06 1.841 2.396 3.927-2.821-2.412-3.3 2.53-1.712zm48.534 7.622c.545.079.926.558.851 1.07-.075.511-.577.862-1.122.783-.544-.08-.925-.559-.851-1.07.075-.512.577-.863 1.122-.783zm-18.605-2.664c1.304 1.94 1.96 3.983 1.847 6.062-.983-1.95-2.333-3.749-4.204-5.413l.48-.808 1.877.159zm21.923 3.331l-.302 2.069c-8.009 6.368-17.236 10.705-26.441 13.318l-1.224-1.892c10.844-2.799 19.015-7.045 27.967-13.495zm-10.409-.039l-3.11 1.64.127-.888 2.983-.752zm-14.507-1.955c2.232 1.445 3.968 3.591 4.762 6.512-3.549 1.451-7.361 2.49-11.005 3.546-1.277-2.72-2.589-5.285-3.418-8.668 5.275.729 7.115-1.764 7.155-1.78 1.204.636 1.463.728 2.506.39zm18.875 3.157c.49.08.93.505.869 1.037-.074.511-.577.862-1.121.783-.545-.08-.926-.559-.851-1.07.2-.624.671-.821 1.103-.75zm-7.382-.452l-.124.896c-1.507.912-4.382 2.324-4.382 2.324l-1.074-.211.722-2.487c1.683-.072 3.334-.29 4.858-.522zm-68.847-9.904l2.29 2.367-1.242 2.976-2.275-2.181 1.227-3.162zm34.572 5.623l.109.93-24.078 16.604-1.179-.359 25.148-17.175zm39.005 6.45c.545.079.926.558.851 1.07-.075.512-.577.862-1.122.783-.544-.079-.925-.558-.851-1.07.075-.512.577-.862 1.122-.783zm7.831 1.132c.116.017.254.029.239.132l-.249 1.704c-.108.02-.222.023-.338.006-.545-.079-.848-.547-.774-1.059.075-.511.577-.862 1.122-.783zm-2.694 1.718c.544.079.925.558.851 1.07-.075.511-.577.862-1.122.783-.545-.079-.926-.558-.851-1.07.075-.512.577-.862 1.122-.783zm-8.29-1.196c.545.079.926.558.851 1.07-.075.512-.577.862-1.122.783-.544-.079-.925-.558-.851-1.07.075-.512.577-.862 1.122-.783zm-7.172-.751l1.008.179-2.038.779c.405-.356.774-.621 1.03-.958zm18.015 3.062l-.265 1.907c-5.515 3.848-12.329 7.682-22.358 10.873l-1.028-1.308c8.135-2.31 16-6.061 23.651-11.472zm-13.924-.964c.545.079.926.558.851 1.07-.074.512-.577.862-1.121.783-.545-.079-.926-.558-.851-1.07.074-.511.577-.862 1.121-.783zm8.759 1.345c.545.079.926.558.851 1.07-.075.512-.577.862-1.121.783-.545-.079-.926-.558-.851-1.07.074-.511.576-.862 1.121-.783zm-98.772-10.566c3.613-1.337 6.334-1.16 10.087-.052l.836 2.289c-3.643-1.165-7.584-1.681-11.303.268-3.182-2.575-5.743-3.557-8.654-3.637l.275-2.245c3.801.053 6.973 1.74 8.759 3.377zm87.036 10.596c.544.079.925.559.851 1.07-.075.512-.577.862-1.122.783-.545-.079-.926-.558-.851-1.07.075-.511.577-.862 1.122-.783zm8.963 1.693c.545.079.926.558.851 1.069-.075.512-.577.863-1.122.784-.545-.08-.926-.559-.851-1.07.075-.512.577-.863 1.122-.783zm-12.187-.36c.545.079.926.558.851 1.07-.075.512-.577.862-1.121.783-.545-.079-.926-.558-.851-1.07.074-.512.576-.862 1.121-.783zm9.117 1.875c.545.079.926.558.851 1.069-.074.512-.576.863-1.121.784-.545-.08-.926-.559-.851-1.07.074-.512.577-.863 1.121-.783zm-12.396-.68c.552.081.938.566.863 1.085-.076.518-.585.874-1.137.794-.553-.081-.939-.566-.863-1.085.076-.519.585-.874 1.137-.794zm9.486 2.173c.545.08.926.559.851 1.07-.074.512-.577.863-1.121.783-.545-.079-.926-.558-.851-1.069.074-.512.577-.863 1.121-.784zm-12.615-1.179c.545.079.926.558.851 1.07-.075.511-.577.862-1.122.783-.544-.08-.925-.559-.851-1.07.075-.512.577-.863 1.122-.783zm-43.728-5.504l2.145 2.467-2.887 2.023-.806-.973 1.614-1.181-.779-1.348.713-.988zm53.376 7.971c.545.08.926.559.851 1.07-.075.512-.577.863-1.122.783-.544-.079-.925-.558-.851-1.07.075-.511.577-.862 1.122-.783zm-3.069 1.156c.545.079.926.558.851 1.07-.074.512-.577.862-1.121.783-.545-.079-.926-.558-.851-1.07.074-.512.576-.862 1.121-.783zm-3.316 1.125c.545.079.926.558.851 1.07-.074.512-.577.862-1.121.783-.545-.079-.926-.558-.851-1.07.074-.512.576-.862 1.121-.783zm-51.108-4.756l.711.729-1.464 1.239-.958-.152 1.711-1.816zm-16.054 1.58c-2.986.893-4.434 1.522-6.616 2.832l-2.262-4.045 8.878 1.213zm-19.025-2.741l7.43 1.181-2.956 2.93c-1.397-1.853-2.892-3.192-4.474-4.111zm8.815 1.648c.771.359 2.47 3.492 3.238 5.179 2.348-1.273 4.68-2.739 7.08-3.361-3.079 2.276-5.842 4.692-7.911 7.116-.301-1.272-1.124-4.909-2.582-6.649-2.986 1.936-4.44 4.584-4.44 4.584a45.032 45.032 0 00-4.144-7.439c-.267-.464 2.241 1.535 4.593 4.41 1.028-1.697 3.435-3.873 4.166-3.84zm-9.201.477c1.139 1.139 4.004 5.834 4.035 8.412l-1.679-.144c-.508-2.716-1.618-5.518-2.356-8.268zm18.452 3.12c-1.614 2.242-3.537 4.493-5.05 7.014l-1.636-.306c2.343-3.437 3.098-4.018 6.686-6.708zm-9.592-.293c.015.001.03.007.039.016 1.27 2.231 1.724 4.287 1.843 6.726l-1.203-.221s-.496-2.502-.952-3.427c-.3-.568-.609-.546-.936-.159-.743.92-1.114 1.895-1.609 2.942l-1.378-.298c.005-1.834 3.7-5.604 4.196-5.579zm-1.229 6.876c.565.089 1.072.75.919 1.761-.025.48-.571 1.475-1.004 1.467-.846.277-1.6-1.079-1.217-2.063.327-.839.804-1.243 1.302-1.165zm-2.766-.207c1.104.256 1 2.645.477 3.06-.591.409-1.915-.135-1.923-.993-.293-1.133.693-2.166 1.446-2.067zm5.51.787c1.194.337.51 2.877-.175 3.165-1.05.344-1.676-.577-1.169-1.744.409-.939.891-1.463 1.344-1.421zm2.751.838c1.373.349.235 2.507-.441 2.882-.979.518-1.692-.573-1.099-1.668.46-.848 1.082-1.287 1.54-1.214zm-11.261-1.567c.992.3 1.265 2.541.571 3.069-.366.307-1.208-.342-1.54-.993-.4-.782.285-2.178.969-2.076zm10.108 6.264c-.044 1.149-.953 1.016-3.491.084-1.282-.471-3.651-.636-4.879-.606-2.066.05-2.332-.122-2.216-.892.136-.894 1.339-1.237 3.965-.933 1.879.218 6.539.878 6.621 2.347zm4.169-.072c-3.159-.178-4.524 3.372-4.378 4.777-.058 2.307-.521 4.664-1.213 6.156-.497 1.071-.967 2.221-1.652 3.158-1.044 1.415-.999 2.584.129 3.373.926.647 2.181.654 3.065-.011 1.598-1.204 2.2-4.164 2.336-11.06.048-2.433.279-2.886 1.493-2.573 2.593.358 3.037-3.407.22-3.82zm-.825 3.029c-.661-.354-1.22.172-1.344 1.668-.072.661-.056 1.419-.054 2.02.06 6.644-.953 10.942-3.109 10.847-1.889.01-2.955-1.451-1.859-2.642.62-.675 1.075-.712 2.012-.174 1.25.995 1.077-.214-.028-1.248-.713-.64-.773-.648-.11-2.226.894-2.129 1.317-3.678 1.516-6.507-.006-2.021 1.082-4.544 3.786-4.308 2.723.317 1.377 3.815-.81 2.57zm-20.392 5.774c.824.528 1.692.585 2.579.381.53-1.333.717-2.479 1.982-4.214-1.423-1.789-4.286-1.584-5.305-.073-1.018 1.511-.508 3.103.744 3.906zm3.345-4.411c.97.345.676 1.309-.218.851-2.096-1.318-4.36 1.401-2.714 2.787.852.619 1.3.4.482-.4-.316-.46-.197-.611.089-.985.59-.751 2.278-.37 2.07.207-.664 1.834-1.001 2.342-1.606 2.259-3.505-.338-3.267-6.554 1.897-4.719zm29.077 7.7s-11.979 9.505-17.798 14.42l62.649 8.832-9.659-17.172c-10.545.73-22.459-1.657-35.192-6.08zm-.825 3.473c1.562.244 3.185 1.57 4.204 5.349.078.046 8.303-8.702 12.72 2.235 1.292-2.123 7.701-7.219 13.007 1.289 3.018-4.738 8.02-2.26 8.254-.42-.055-.397-4.79-2.2-7.4.852-.496.655-.614 1.327-.224 1.792.921 1.097-.429 2.28-1.522 1.336-.426-.367-.394-1.005.032-1.406 1.173-.59-.668-3.225-2.339-4.32-2.294-1.503-5.799-1.497-7.689-.094-1.016.755-1.674 1.469-1.897 2.084-.111.285-.092.445.066.668.597.916-.037 1.957-.986 1.681-1.242-.361-.91-1.45.027-1.935.278-.083.2-.24.152-.46-1.421-6.462-10.224-6.551-11.776-2.444-.056.149-.154.3-.14.463.038.42.24.799.097 1.104-.587 1.245-2.267.619-2.188-.471.036-.496.622-.562.963-.97.207-.257.333-.59.22-.925-1.667-4.943-5.823-4.563-7.967-3.813-.045.016 2.104-1.95 4.386-1.595zm-2.984 2.292c.86.095 1.581.604 2.192 1.501 2.629-.861 4.065 1.501 3.745 1.662-3.162-2.621-5.009 2.147-1.561 2.457-1.93 2.702 3.256 4.734 3.198.914 3.154 1.568 4.325-2.626.96-3.049 1.341-1.606 4.085-.711 5.115.567 1.634-1.402 4.848.628 4.988 2.05-3.583-2.415-4.8 3.198-.891 2.534-1.632 3.448 4.378 3.798 3.192.448 3.53 1.679 3.784-3.583-.002-3.059-.181-.301 3.349-2.851 5.186.294.377-.452 4.125-1.568 5.673 1.266-3.969-1.928-3.949 3.449-.814 2.836-1.307 3.371 4.157 3.588 3.216.416 4.025 1.597 3.05-4.638-.202-2.861.828-2.329 4.188-.825 4.096-.461 0-.002 2.137-1.62 4.019.066-3.294-.216-2.788 4.07.46 3.343-.238 1.395.866 2.503 2.611 2.272l2.127 3.838-60.07-8.373 5.578-4.67c1.422 1.478 3.17 1.131 3.66-.791 3.197 2.518 4.801-2.127 1.556-2.809.727-.329 1.38-.457 1.968-.391zm-3.581 1.063c.188.168-.191.791-.622.532l.622-.532zm46.595 8.192c.144.266.248.439.391.705.054.226-.919-.25-.391-.705z" fill="#000"/></g><g clip-path="url(#prefix__clip1_4_34)"><path d="M244.581 64.56L99.637 44.211a6.066 6.066 0 00-6.846 5.17L63.135 260.655c-.466 3.321 1.843 6.39 5.158 6.855l144.944 20.347c3.315.465 6.379-1.85 6.846-5.17l29.657-211.273a6.066 6.066 0 00-5.158-6.855z" fill="#fff" stroke="gray" stroke-width=".756"/><path d="M99.2 85.93a15.646 15.646 0 00-1.78-3.852c-.492-.769-1.05-1.492-1.62-2.204-.443-.557-.897-1.112-1.236-1.74-.228-.425-.404-.887-.451-1.37-.086-.874.263-1.749.788-2.45a4.19 4.19 0 011.11-1.046c.642-.403 1.43-.587 2.164-.42.672.154 1.26.59 1.69 1.137.38.484.649 1.058.786 1.665a4.18 4.18 0 011.213-1.384c.564-.407 1.249-.665 1.938-.628.751.042 1.459.436 1.964 1 .341.379.597.832.779 1.31.312.82.406 1.757.084 2.574-.178.45-.474.846-.811 1.19-.499.512-1.088.92-1.668 1.334-.743.528-1.479 1.07-2.164 1.673a15.655 15.655 0 00-2.772 3.213M213.659 246.137a15.682 15.682 0 01-2.772 3.213c-.685.604-1.421 1.145-2.164 1.674-.58.413-1.168.821-1.667 1.332-.337.346-.634.741-.812 1.192-.322.817-.228 1.754.084 2.572.182.48.438.933.779 1.312.506.564 1.214.958 1.965.999.688.038 1.374-.22 1.937-.628a4.19 4.19 0 001.214-1.384c.136.607.405 1.181.785 1.665.43.547 1.018.983 1.69 1.137.734.167 1.523-.017 2.164-.42a4.184 4.184 0 001.11-1.046c.525-.701.874-1.576.789-2.45-.047-.483-.223-.944-.452-1.369-.339-.628-.793-1.184-1.237-1.74-.568-.713-1.126-1.436-1.619-2.205a15.66 15.66 0 01-1.78-3.852M153.741 185.076a46.967 46.967 0 00-5.34-11.557c-1.477-2.307-3.152-4.475-4.857-6.613-1.332-1.67-2.692-3.336-3.709-5.221-.687-1.274-1.215-2.659-1.356-4.106-.256-2.623.791-5.249 2.366-7.351.922-1.231 2.035-2.326 3.33-3.139 1.924-1.208 4.291-1.76 6.491-1.258 2.018.46 3.781 1.77 5.07 3.409a12.576 12.576 0 012.357 4.995 12.556 12.556 0 013.641-4.153c1.69-1.221 3.746-1.995 5.812-1.881 2.254.123 4.377 1.305 5.895 2.996 1.021 1.138 1.789 2.497 2.336 3.935.935 2.454 1.219 5.267.251 7.718-.534 1.353-1.423 2.538-2.434 3.574-1.497 1.532-3.263 2.759-5.003 3.998-2.228 1.585-4.435 3.209-6.49 5.02a46.96 46.96 0 00-8.316 9.64M107.918 69.892l-2.602-.365-.477-4.067-5.365-.753-1.624 3.772-2.601-.365 7.743-18.334 2.539.357 2.387 19.755zm-3.522-8.099l-.826-6.782-2.67 6.292 3.496.49zM204.955 262.177l2.602.365.477 4.068 5.365.753 1.624-3.773 2.602.366-7.744 18.333-2.539-.357-2.387-19.755zm3.522 8.099l.826 6.783 2.67-6.292-3.496-.491z" fill="red"/></g><defs><clipPath id="prefix__clip0_4_34"><path fill="#fff" transform="rotate(7.991 29.017 1445.377)" d="M0 0h158v226H0z"/></clipPath><clipPath id="prefix__clip1_4_34"><path fill="#fff" transform="rotate(7.991 -261.69 690.28)" d="M0 0h159v226H0z"/></clipPath></defs></svg>